<?xml version="1.0" encoding="UTF-8" standalone="no"?>
<!-- Created with Inkscape (http://www.inkscape.org/) -->

<svg
   version="1.1"
   id="svg1"
   width="671.12726"
   height="187.34544"
   viewBox="0 0 671.12726 187.34544"
   sodipodi:docname="proxima_logo.svg"
   inkscape:version="1.3.2 (1:1.3.2+202311252150+091e20ef0f)"
   xmlns:inkscape="http://www.inkscape.org/namespaces/inkscape"
   xmlns:sodipodi="http://sodipodi.sourceforge.net/DTD/sodipodi-0.dtd"
   xmlns="http://www.w3.org/2000/svg"
   xmlns:svg="http://www.w3.org/2000/svg">
  <defs
     id="defs1" />
  <sodipodi:namedview
     id="namedview1"
     pagecolor="#ffffff"
     bordercolor="#000000"
     borderopacity="0.25"
     inkscape:showpageshadow="2"
     inkscape:pageopacity="0.0"
     inkscape:pagecheckerboard="0"
     inkscape:deskcolor="#d1d1d1"
     showgrid="false"
     inkscape:zoom="2.6284136"
     inkscape:cx="335.56363"
     inkscape:cy="93.782806"
     inkscape:window-width="2490"
     inkscape:window-height="1529"
     inkscape:window-x="833"
     inkscape:window-y="1114"
     inkscape:window-maximized="1"
     inkscape:current-layer="layer2" />
  <g
     inkscape:groupmode="layer"
     id="layer2"
     inkscape:label="vector">
    <g
       id="g3"
       transform="translate(1.0738922,-0.23249642)">
      <path
         style="display:inline;fill:#fdfc03"
         d="m 133.68626,176.31274 c -9.85727,-1.85265 -18.72411,-8.69051 -23.12018,-17.82963 -1.20925,-2.51393 -2.11502,-5.37895 -2.79587,-8.84349 -0.52795,-2.6865 -0.60782,-3.81445 -0.45804,-6.46852 0.33525,-5.94074 2.12934,-11.51965 5.17814,-16.10192 0.45777,-0.68802 0.83231,-1.35827 0.83231,-1.48944 0,-0.66575 6.19683,-6.50199 8.47876,-7.98538 7.00528,-4.55386 15.4378,-6.37333 22.93943,-4.94959 1.36,0.25811 2.89818,0.53407 3.41818,0.61325 0.52,0.0792 0.94545,0.26053 0.94545,0.40302 0,0.1425 0.20258,0.25909 0.45018,0.25909 0.45266,0 5.4495,2.3674 7.46996,3.5391 2.69458,1.56265 7.94021,6.78964 9.74199,9.70739 1.90236,3.08062 3.20202,6.07883 4.17981,9.64251 0.77869,2.83801 1.09249,9.78427 0.57778,12.78979 -1.5037,8.78045 -6.72571,16.95684 -13.84889,21.68399 -3.66556,2.43257 -5.85515,3.42703 -9.92977,4.50989 -2.38147,0.63288 -3.6127,0.77407 -7.36833,0.84493 -2.99672,0.0565 -5.24089,-0.0525 -6.69091,-0.32499 z"
         id="path8"
         inkscape:label="黄丸" />
      <path
         style="display:inline;fill:#fc0000"
         d="m 80.740807,151.00588 c -4.137557,-0.40987 -5.817107,-0.64201 -7.272727,-1.00521 -0.56,-0.13973 -1.942865,-0.45795 -3.073033,-0.70717 -8.328186,-1.83646 -17.652159,-6.3095 -25.597254,-12.27992 -7.412663,-5.57032 -14.295145,-13.52099 -18.605763,-21.49345 -0.605571,-1.12 -1.266662,-2.29819 -1.469092,-2.61819 -0.202429,-0.32 -0.719147,-1.43272 -1.148262,-2.47272 -0.429115,-1.04 -0.955234,-2.28364 -1.169155,-2.76364 -0.213921,-0.48 -0.85607,-2.29109 -1.426999,-4.02464 -2.738929,-8.316391 -4.089831,-18.771674 -3.395313,-26.277956 0.739033,-7.987381 2.337094,-14.919294 4.918219,-21.333764 0.880881,-2.189117 3.025003,-6.746968 3.558114,-7.563636 0.156669,-0.24 0.504656,-0.861818 0.773303,-1.381818 0.268648,-0.52 0.595113,-0.945454 0.725479,-0.945454 0.130366,0 0.237029,-0.156871 0.237029,-0.348602 0,-0.532786 2.480305,-4.133444 4.970059,-7.215034 2.345448,-2.902981 6.598459,-7.288371 9.451274,-9.745454 2.052321,-1.767631 6.977029,-5.328706 7.978667,-5.769405 0.4,-0.175991 1.12,-0.599333 1.6,-0.940759 1.102812,-0.784435 5.521619,-3.021745 8,-4.050524 2.633701,-1.093252 8.320195,-3.039317 9.890908,-3.384924 3.209632,-0.70622 4.073475,-0.873909 6.4,-1.242362 6.311406,-0.99954 9.198402,-1.16164 14.210548,-0.797898 10.622441,0.770892 18.779571,2.939213 27.592711,7.334669 5.58621,2.786061 10.86925,6.347636 15.06303,10.154782 1.5955,1.448409 6.4441,6.430082 7.13371,7.329505 0.24,0.31302 1.11952,1.444084 1.95449,2.513475 0.83496,1.069392 1.76241,2.271622 2.06099,2.671622 1.0661,1.428219 4.91945,8.334448 6.0056,10.763635 1.53562,3.434423 1.47684,3.282783 2.61805,6.755135 2.71221,8.25245 4.0738,18.789057 3.38754,26.214297 -0.87718,9.490956 -2.67201,16.62576 -6.06801,24.12147 -1.00247,2.21267 -1.04096,2.25436 -2.07187,2.24433 -0.57773,-0.006 -1.90134,-0.19739 -2.94134,-0.42614 -2.22099,-0.48853 -7.49224,-0.55786 -10.18181,-0.13392 -2.74269,0.43232 -6.74128,1.62189 -8.79372,2.6161 -0.98016,0.4748 -1.88723,0.86327 -2.01571,0.86327 -0.3411,0 -4.23347,2.72827 -5.78345,4.05378 -2.12766,1.81953 -3.13043,2.92058 -4.9187,5.40077 -4.35142,6.03507 -6.08654,11.16848 -6.39009,18.9053 l -0.17106,4.35985 -3.2,0.81587 c -4.009305,1.02221 -5.606224,1.28248 -11.054545,1.80168 -5.119844,0.48789 -6.882713,0.48835 -11.781818,0.003 z"
         id="path5"
         inkscape:label="赤丸内部" />
      <path
         style="display:inline;fill:#b21d1b"
         d="M 80.740807,151.44566 C 66.470163,149.96875 53.862578,144.84754 42.948029,136.09423 34.745205,129.51568 27.153261,119.71109 23.287095,110.70319 22.707385,109.3525 22.113397,107.98558 21.967123,107.66558 20.899248,105.32943 19.257395,99.749217 18.45779,95.738309 16.364386,85.237567 16.669851,74.82883 19.381875,64.250067 21.620781,55.516791 26.487437,45.752344 32.10614,38.72013 c 7.1107,-8.899555 16.098832,-15.93897 26.077824,-20.423889 7.140189,-3.209059 13.490929,-4.906672 21.538661,-5.757488 5.148821,-0.54434 8.816771,-0.544237 13.963636,3.92e-4 9.468889,1.001977 17.165029,3.293261 25.333939,7.542384 29.53891,15.364895 44.00812,49.064664 34.85689,81.184051 -0.84777,2.97553 -2.89038,8.33891 -4.03934,10.60627 -0.87561,1.72793 -0.42505,1.6596 -5.09694,0.77292 -7.50163,-1.42374 -15.93415,0.39573 -22.93943,4.94959 -2.28193,1.48339 -8.47876,7.31963 -8.47876,7.98538 0,0.13117 -0.37454,0.80142 -0.83231,1.48944 -3.39235,5.09863 -4.99023,10.46143 -5.14002,17.25094 l -0.0963,4.36364 -1.83843,0.51387 c -5.36598,1.49987 -10.667906,2.24575 -16.965693,2.38673 -2.88,0.0645 -6.34909,0.002 -7.70909,-0.1387 z m 11.781818,-0.44283 c 5.448321,-0.5192 7.04524,-0.77947 11.054545,-1.80168 l 3.2,-0.81587 0.17106,-4.35985 c 0.30355,-7.73682 2.03867,-12.87023 6.39009,-18.9053 1.78827,-2.48019 2.79104,-3.58124 4.9187,-5.40077 1.54998,-1.32551 5.44235,-4.05378 5.78345,-4.05378 0.12848,0 1.03555,-0.38847 2.01571,-0.86327 2.05244,-0.99421 6.05103,-2.18378 8.79372,-2.6161 2.68957,-0.42394 7.96082,-0.35461 10.18181,0.13392 1.04,0.22875 2.36361,0.42052 2.94134,0.42614 1.03091,0.01 1.0694,-0.0317 2.07187,-2.24433 3.396,-7.49571 5.19083,-14.630514 6.06801,-24.12147 0.68626,-7.42524 -0.67533,-17.961847 -3.38754,-26.214297 -1.14121,-3.472352 -1.08243,-3.320712 -2.61805,-6.755135 -1.08615,-2.429187 -4.9395,-9.335416 -6.0056,-10.763635 -0.29858,-0.4 -1.22603,-1.60223 -2.06099,-2.671622 -0.83497,-1.069391 -1.71449,-2.200455 -1.95449,-2.513475 -0.68961,-0.899423 -5.53821,-5.881096 -7.13371,-7.329505 -4.19378,-3.807146 -9.47682,-7.368721 -15.06303,-10.154782 -8.81314,-4.395456 -16.97027,-6.563777 -27.592711,-7.334669 -5.012146,-0.363742 -7.899142,-0.201642 -14.210548,0.797898 -2.326525,0.368453 -3.190368,0.536142 -6.4,1.242362 -1.570713,0.345607 -7.257207,2.291672 -9.890908,3.384924 -2.478381,1.028779 -6.897188,3.266089 -8,4.050524 -0.48,0.341426 -1.2,0.764768 -1.6,0.940759 -1.001638,0.440699 -5.926346,4.001774 -7.978667,5.769405 -2.852815,2.457083 -7.105826,6.842473 -9.451274,9.745454 -2.489754,3.08159 -4.970059,6.682248 -4.970059,7.215034 0,0.191731 -0.106663,0.348602 -0.237029,0.348602 -0.130366,0 -0.456831,0.425454 -0.725479,0.945454 -0.268647,0.52 -0.616634,1.141818 -0.773303,1.381818 -0.533111,0.816668 -2.677233,5.374519 -3.558114,7.563636 -2.581125,6.41447 -4.179186,13.346383 -4.918219,21.333764 -0.694518,7.506282 0.656384,17.961565 3.395313,26.277956 0.570929,1.73355 1.213078,3.54464 1.426999,4.02464 0.213921,0.48 0.74004,1.72364 1.169155,2.76364 0.429115,1.04 0.945833,2.15272 1.148262,2.47272 0.20243,0.32 0.863521,1.49819 1.469092,2.61819 4.310618,7.97246 11.1931,15.92313 18.605763,21.49345 7.945095,5.97042 17.269068,10.44346 25.597254,12.27992 1.130168,0.24922 2.513033,0.56744 3.073033,0.70717 1.45562,0.3632 3.13517,0.59534 7.272727,1.00521 4.899105,0.4853 6.661974,0.48484 11.781818,-0.003 z"
         id="path4"
         inkscape:label="赤丸縁" />
      <path
         style="display:inline;fill:#000000"
         d="m 337.75898,142.80752 c -19.60328,-1.78089 -31.15109,-17.65879 -28.20504,-38.7811 1.94237,-13.926223 10.08964,-23.351221 22.98822,-26.593436 5.86849,-1.475119 12.6748,-1.644937 18.7441,-0.467667 12.43396,2.411831 20.67764,11.278534 22.86327,24.591173 0.64729,3.94264 0.65143,11.32758 0.008,14.98182 -1.30334,7.4067 -4.16033,13.0218 -8.96463,17.61901 -2.82254,2.70088 -4.85557,4.10325 -8.26418,5.70057 -5.10355,2.39161 -12.6059,3.54596 -19.17013,2.94963 z m 7.98515,-11.45072 c 1.03182,-0.16741 2.86455,-0.71258 4.07272,-1.21148 4.15357,-1.71518 7.82374,-6.30502 9.13592,-11.42519 1.33885,-5.22423 1.37252,-12.65123 0.0801,-17.66944 -2.28343,-8.866259 -7.9381,-13.388024 -16.76482,-13.406012 -7.34057,-0.01496 -12.71753,3.220193 -15.95536,9.599855 -1.86627,3.677197 -2.88579,10.373957 -2.38461,15.663407 0.3759,3.96726 0.94808,6.1537 2.35844,9.01219 3.59124,7.27861 10.90286,10.82465 19.45759,9.43667 z m 266.17094,11.35291 c -7.71976,-1.07762 -13.40022,-5.93256 -15.30468,-13.08049 -0.69775,-2.61886 -0.67557,-8.4242 0.0428,-11.2 1.98614,-7.67456 7.8081,-12.60715 17.14742,-14.52797 1.1371,-0.23386 6.25655,-1.02309 11.37655,-1.75382 5.12,-0.73074 9.62248,-1.39896 10.00551,-1.48492 0.68029,-0.15269 0.69237,-0.20819 0.52127,-2.394801 -0.56891,-7.270606 -4.47343,-10.992812 -11.88778,-11.332729 -7.11186,-0.326049 -13.96244,1.836867 -19.70439,6.221214 l -2.1563,1.646473 0.19266,-4.451159 c 0.10597,-2.448137 0.19267,-5.335074 0.19267,-6.415414 v -1.964256 l 2.6909,-1.308689 c 5.59525,-2.721177 11.45063,-4.126691 18.51051,-4.443226 12.50578,-0.560705 20.83561,3.687382 24.29701,12.391113 0.28634,0.72 0.79297,2.421818 1.12584,3.781818 0.58221,2.378695 0.60942,3.3605 0.7154,25.818176 l 0.11018,23.34546 h -6.99765 -6.99765 v -4.94546 c 0,-2.72 -0.10886,-4.94545 -0.24192,-4.94545 -0.13305,0 -0.67978,0.68727 -1.21495,1.52727 -0.53517,0.84 -2.02995,2.57853 -3.32172,3.8634 -2.62833,2.61428 -5.78124,4.40808 -9.18505,5.22571 -2.35478,0.56564 -7.37695,0.78227 -9.91663,0.42775 z m 12.64401,-11.09068 c 2.38839,-0.60681 4.39947,-1.81373 6.44123,-3.86563 3.65133,-3.66943 4.79503,-6.91063 4.79503,-13.5889 0,-2.31725 -0.116,-4.02619 -0.2733,-4.02619 -1.60243,0 -15.90703,2.22055 -17.86433,2.77313 -5.69207,1.607 -7.81932,4.15981 -7.87053,9.44505 -0.0279,2.88099 0.65401,4.81288 2.30835,6.53949 2.74084,2.86059 7.67723,3.9391 12.46355,2.72305 z M 192.7408,96.731794 V 51.907101 l 16.50909,0.121889 c 14.19513,0.104804 16.89646,0.193981 19.27273,0.636233 10.27171,1.911686 16.98478,6.359825 20.66268,13.691269 2.27718,4.539304 2.70742,6.557969 2.72805,12.799999 0.0149,4.519856 -0.0731,5.594618 -0.64346,7.854545 -2.37946,9.428205 -9.2154,16.724904 -18.67454,19.933254 -4.5897,1.55674 -6.56366,1.79404 -16.21818,1.94966 l -9.09091,0.14653 v 16.25801 16.258 h -7.27273 -7.27273 z m 31.50427,-0.512474 c 8.16196,-2.193514 12.4129,-7.738005 12.4129,-16.190101 0,-8.400631 -4.15257,-13.673944 -12.05163,-15.304258 -2.15626,-0.445038 -3.9504,-0.543331 -9.97463,-0.546465 l -7.34545,-0.0038 v 16.471271 16.471271 l 7.34545,-0.1442 c 6.23523,-0.122405 7.68824,-0.236323 9.61336,-0.753696 z m 41.51391,13.33717 V 77.556492 h 7.27273 7.27273 l 0.0186,6.763635 c 0.0176,6.389088 0.0439,6.707253 0.47464,5.745455 2.7136,-6.058609 4.44114,-8.468968 7.72033,-10.771859 2.74174,-1.925445 5.10421,-2.660766 8.55962,-2.664191 1.60628,-0.0016 3.31005,0.185142 4.29091,0.470286 l 1.62681,0.472927 v 6.816231 6.816232 l -1.44229,-0.724419 c -0.79597,-0.399796 -2.49064,-0.877218 -3.78176,-1.065401 -6.31192,-0.919971 -11.53749,2.02609 -14.66541,8.268034 -2.67557,5.339268 -2.61828,4.802298 -2.73292,25.618518 l -0.10052,18.25455 h -7.25673 -7.25674 z m 115.78182,31.83482 c 0,-0.13669 13.64313,-19.88057 19.48529,-28.19846 0.89902,-1.28 1.73371,-2.49048 1.85486,-2.68995 0.1375,-0.22639 -2.5368,-4.70849 -7.11657,-11.927274 -4.03526,-6.360524 -8.6857,-13.691862 -10.33432,-16.291862 l -2.99747,-4.727272 h 8.39709 8.39709 l 3.12089,5.890908 c 1.71649,3.24 4.75518,9 6.75265,12.8 1.99747,3.8 3.71554,6.90349 3.81794,6.89664 0.1024,-0.007 3.39186,-5.766845 7.3099,-12.799998 l 7.12372,-12.78755 h 7.78538 c 4.28195,0 7.78537,0.06337 7.78537,0.140832 0,0.07746 -4.76697,7.365581 -10.59327,16.19583 l -10.59326,16.054996 10.57419,15.80417 10.57419,15.80417 h -8.35733 -8.35733 l -6.44429,-11.41818 c -3.54436,-6.28 -6.64648,-11.78667 -6.89361,-12.23703 -0.24712,-0.45037 -0.56354,-0.74825 -0.70314,-0.66198 -0.1396,0.0863 -3.38083,5.59138 -7.20272,12.23355 l -6.94889,12.07668 -8.21818,0.003 c -4.52,0.002 -8.21818,-0.0709 -8.21818,-0.1617 z m 72.43636,-31.83482 V 77.556492 h 7.12727 7.12728 v 31.999998 32 h -7.12728 -7.12727 z m 33.45455,0 V 77.556492 h 7.12727 7.12727 V 82.6474 c 0,2.8 0.0982,5.087534 0.21818,5.083408 0.12,-0.0041 0.67637,-0.683362 1.23637,-1.509413 3.20485,-4.727448 7.32419,-7.741512 12.65454,-9.259151 2.79915,-0.796963 8.59008,-0.963162 11.2,-0.321439 5.64953,1.389092 11.18188,6.114591 12.96545,11.074532 0.29222,0.812635 0.60363,1.472175 0.69202,1.465646 0.0884,-0.0065 0.70883,-0.890166 1.37875,-1.963637 3.34717,-5.363483 8.06108,-8.892376 13.90924,-10.412646 3.06892,-0.797788 9.41397,-0.737444 12.45067,0.118412 2.62347,0.739394 5.08954,1.924945 6.74933,3.244703 3.93888,3.131953 6.5211,8.611259 7.40283,15.708316 0.18953,1.525555 0.30626,10.700579 0.30626,24.072729 v 21.60763 h -7.10974 -7.10975 l -0.11348,-20.72727 c -0.10142,-18.52479 -0.16798,-20.959068 -0.62637,-22.908641 -1.14836,-4.884139 -2.73698,-7.418441 -5.61016,-8.949831 -3.06579,-1.634051 -6.81775,-1.851535 -10.2042,-0.59149 -2.97207,1.105862 -6.49371,5.199078 -8.06525,9.374277 -1.55705,4.136695 -1.59742,4.769175 -1.59742,25.027055 v 18.7759 h -7.27272 -7.27273 l -0.004,-20.14546 c -0.004,-18.66788 -0.0445,-20.34241 -0.558,-22.830908 -1.41895,-6.876055 -4.58469,-10.176421 -10.52857,-10.976315 -1.83721,-0.247242 -4.70919,0.259078 -6.53415,1.151946 -2.95483,1.445664 -5.93148,5.337491 -7.22714,9.44915 -1.19259,3.784557 -1.32845,6.379207 -1.32932,25.387947 l -8.2e-4,17.96364 h -7.12727 -7.12727 z M 459.56356,63.822105 c -1.85948,-0.275599 -2.917,-0.794397 -4.45897,-2.18748 -1.40793,-1.271978 -1.92403,-2.215502 -2.30198,-4.208418 -0.57983,-3.057411 0.60119,-6.048088 3.15872,-7.998776 4.17982,-3.188059 11.10964,-1.511976 13.15397,3.18149 2.65815,6.102702 -2.57585,12.247106 -9.55174,11.213184 z"
         id="path3"
         inkscape:label="文字" />
    </g>
  </g>
</svg>
