<svg class="typst-doc" viewBox="0 0 311.81102362204723 244.34276820866143" width="311.81102362204723pt" height="244.34276820866143pt" xmlns="http://www.w3.org/2000/svg" xmlns:xlink="http://www.w3.org/1999/xlink" xmlns:h5="http://www.w3.org/1999/xhtml">
    <path class="typst-shape" fill="#ffffff" fill-rule="nonzero" d="M 0 0v 244.34277 h 311.81104 v -244.34277 Z "/>
    <g>
        <g class="typst-group" transform="matrix(1 0 0 1 22.677165354330707 22.677165354330707)">
            <g>
                <g class="typst-group" transform="matrix(1 0 0 1 56.008346456642926 0)">
                    <g>
                        <g class="typst-group">
                            <g>
                                <path class="typst-shape" fill="none" stroke="#1f2937" stroke-width="0.8250000000000001" stroke-linecap="round" stroke-linejoin="miter" stroke-miterlimit="4" transform="matrix(1 0 0 1 23.64747196276013 25.31999999999999)" d="M 0 0l 107.20926 0.000000000000025176711 "/>
                                <path class="typst-shape" fill="none" stroke="#1f2937" stroke-width="0.8250000000000001" stroke-linecap="round" stroke-linejoin="miter" stroke-miterlimit="4" transform="matrix(1 0 0 1 127.6169556919869 25.319999905511814)" d="M 0 0m 3.239777 0 c -1.663341 0.7650515 -2.8653758 2.2735121 -3.239777 4.0656705 "/>
                                <path class="typst-shape" fill="none" stroke="#1f2937" stroke-width="0.8250000000000001" stroke-linecap="round" stroke-linejoin="miter" stroke-miterlimit="4" transform="matrix(1 0 0 1 127.6169556919869 21.25432941403553)" d="M 0 0m 3.239777 4.0656705 c -1.663341 -0.76505136 -2.8653758 -2.2735124 -3.239777 -4.0656705 "/>
                                <path class="typst-shape" fill="none" transform="matrix(1 0 0 1 70.10835243999561 0)" d="M 0 0h 14.7 v 19.32 h -14.7 v -19.32 Z "/>
                                <g class="typst-group">
                                    <g>
                                        <g class="typst-group" transform="matrix(1 0 0 1 70.1083523455074 -0.000000047244092578565205)">
                                            <g>
                                                <g class="typst-group">
                                                    <g>
                                                        <g class="typst-group">
                                                            <g>
                                                                <g class="typst-text" transform="matrix(1 0 0 -1 3 13.245)">
                                                                    <use xlink:href="#gB189CECAEC2188B4A391AEA2711EA57A" x="0" y="0" fill="#1f2937" fill-rule="nonzero"/>
                                                                </g>
                                                            </g>
                                                        </g>
                                                    </g>
                                                </g>
                                            </g>
                                        </g>
                                    </g>
                                </g>
                                <path class="typst-shape" fill="none" stroke="#1f2937" stroke-width="0.8250000000000001" stroke-linecap="round" stroke-linejoin="miter" stroke-miterlimit="4" transform="matrix(1 0 0 1 27.255000000050003 148.065)" d="M 0 0h 100.0875 "/>
                                <path class="typst-shape" fill="none" stroke="#1f2937" stroke-width="0.8250000000000001" stroke-linecap="round" stroke-linejoin="miter" stroke-miterlimit="4" transform="matrix(1 0 0 1 124.10272299907353 148.0650000944882)" d="M 0 0m 3.239777 0 c -1.663341 0.7650515 -2.8653758 2.2735121 -3.239777 4.0656705 "/>
                                <path class="typst-shape" fill="none" stroke="#1f2937" stroke-width="0.8250000000000001" stroke-linecap="round" stroke-linejoin="miter" stroke-miterlimit="4" transform="matrix(1 0 0 1 124.10272299907353 143.99932960301192)" d="M 0 0m 3.239777 4.0656705 c -1.663341 -0.76505136 -2.8653758 -2.2735124 -3.239777 -4.0656705 "/>
                                <path class="typst-shape" fill="none" transform="matrix(1 0 0 1 63.11250000004999 154.065)" d="M 0 0h 28.785 v 19.95 h -28.785 v -19.95 Z "/>
                                <g class="typst-group">
                                    <g>
                                        <g class="typst-group" transform="matrix(1 0 0 1 63.1124999055618 154.06499995275593)">
                                            <g>
                                                <g class="typst-group">
                                                    <g>
                                                        <g class="typst-group">
                                                            <g>
                                                                <g class="typst-text" transform="matrix(1 0 0 -1 3 13.245)">
                                                                    <use xlink:href="#gC67AB9A19D7AEC0FD01FAD129CEC989D" x="0" y="0" fill="#1f2937" fill-rule="nonzero"/>
                                                                </g>
                                                                <g class="typst-text" transform="matrix(1 0 0 -1 10.994999999999997 16.949999999999996)">
                                                                    <use xlink:href="#gB58006A6F90D6EFA546DB974E8FCA849" x="0" y="0" fill="#1f2937" fill-rule="nonzero"/>
                                                                </g>
                                                                <g class="typst-text" transform="matrix(1 0 0 -1 17.085 13.245)">
                                                                    <use xlink:href="#gB189CECAEC2188B4A391AEA2711EA57A" x="0" y="0" fill="#1f2937" fill-rule="nonzero"/>
                                                                </g>
                                                            </g>
                                                        </g>
                                                    </g>
                                                </g>
                                            </g>
                                        </g>
                                    </g>
                                </g>
                                <path class="typst-shape" fill="none" stroke="#1f2937" stroke-width="0.8250000000000001" stroke-linecap="round" stroke-linejoin="miter" stroke-miterlimit="4" stroke-dashoffset="0" stroke-dasharray="3 3" transform="matrix(1 0 0 1 77.50500000004999 37.5945)" d="M 0 0v 97.7835 "/>
                                <path class="typst-shape" fill="none" stroke="#1f2937" stroke-width="0.8250000000000001" stroke-linecap="round" stroke-linejoin="miter" stroke-miterlimit="4" transform="matrix(1 0 0 1 73.43932941408552 132.1382225265826)" d="M 0 0m 4.0656705 3.239777 c -0.76505136 -1.663341 -2.2735124 -2.8653758 -4.0656705 -3.239777 "/>
                                <path class="typst-shape" fill="none" stroke="#1f2937" stroke-width="0.8250000000000001" stroke-linecap="round" stroke-linejoin="miter" stroke-miterlimit="4" transform="matrix(1 0 0 1 77.50499990556183 132.1382225265826)" d="M 0 0m 0 3.239777 c 0.7650515 -1.663341 2.2735121 -2.8653758 4.0656705 -3.239777 "/>
                                <path class="typst-shape" fill="none" transform="matrix(1 0 0 1 68.67750000005002 78.57)" d="M 0 0h 17.655 v 16.245 h -17.655 v -16.245 Z "/>
                                <g class="typst-group">
                                    <g>
                                        <g class="typst-group" transform="matrix(1 0 0 1 68.67749995280589 78.57)">
                                            <g>
                                                <g class="typst-group">
                                                    <g>
                                                        <g class="typst-group">
                                                            <g>
                                                                <path class="typst-shape" fill="#ffffff" fill-rule="nonzero" d="M 0 0m 0 3 c 0 -1.6568543 1.3431457 -3 3 -3 h 11.655 c 1.6568537 0 3.000001 1.3431457 3.000001 3 v 10.245 c 0 1.6568546 -1.3431473 3.000001 -3.000001 3.000001 h -11.655 c -1.6568543 0 -3 -1.3431463 -3 -3.000001 Z "/>
                                                                <g class="typst-text" transform="matrix(1 0 0 -1 3 13.245)">
                                                                    <use xlink:href="#gC67AB9A19D7AEC0FD01FAD129CEC989D" x="0" y="0" fill="#1f2937" fill-rule="nonzero"/>
                                                                </g>
                                                            </g>
                                                        </g>
                                                    </g>
                                                </g>
                                            </g>
                                        </g>
                                    </g>
                                </g>
                                <path class="typst-shape" fill="none" transform="matrix(1 0 0 1 5.827500000000003 20.19750000000001)" d="M 0 0h 9.6 v 10.245 h -9.6 v -10.245 Z "/>
                                <g class="typst-group">
                                    <g>
                                        <g class="typst-group" transform="matrix(1 0 0 1 5.827499952805907 20.197499905511826)">
                                            <g>
                                                <g class="typst-group">
                                                    <g>
                                                        <g class="typst-text" transform="matrix(1 0 0 -1 0.00000000004999893412679639 10.244999999999997)">
                                                            <use xlink:href="#gB57FCA2C776E7106686B63537D9738A6" x="0" y="0" fill="#1f2937" fill-rule="nonzero"/>
                                                        </g>
                                                    </g>
                                                </g>
                                            </g>
                                        </g>
                                    </g>
                                </g>
                                <path class="typst-shape" fill="none" transform="matrix(1 0 0 1 139.58249999999998 20.19750000000001)" d="M 0 0h 9.03 v 10.245 h -9.03 v -10.245 Z "/>
                                <g class="typst-group">
                                    <g>
                                        <g class="typst-group" transform="matrix(1 0 0 1 139.5824999055618 20.197499905511826)">
                                            <g>
                                                <g class="typst-group">
                                                    <g>
                                                        <g class="typst-text" transform="matrix(1 0 0 -1 0.000000000049999829298746954 10.244999999999997)">
                                                            <use xlink:href="#g8098ECF495A916CB7971A11E8D780A60" x="0" y="0" fill="#1f2937" fill-rule="nonzero"/>
                                                        </g>
                                                    </g>
                                                </g>
                                            </g>
                                        </g>
                                    </g>
                                </g>
                                <path class="typst-shape" fill="none" transform="matrix(1 0 0 1 0.0000000000000015735444443506155 142.94250000000002)" d="M 0 0h 21.255 v 10.245 h -21.255 v -10.245 Z "/>
                                <g class="typst-group">
                                    <g>
                                        <g class="typst-group" transform="matrix(1 0 0 1 -0.00000004719409364443841 142.94249990551182)">
                                            <g>
                                                <g class="typst-group">
                                                    <g>
                                                        <g class="typst-text" transform="matrix(1 0 0 -1 0.00000000005000072447069752 10.244999999999997)">
                                                            <use xlink:href="#gC67AB9A19D7AEC0FD01FAD129CEC989D" x="0" y="0" fill="#1f2937" fill-rule="nonzero"/>
                                                        </g>
                                                        <g class="typst-text" transform="matrix(1 0 0 -1 11.65500000005 10.244999999999997)">
                                                            <use xlink:href="#gB57FCA2C776E7106686B63537D9738A6" x="0" y="0" fill="#1f2937" fill-rule="nonzero"/>
                                                        </g>
                                                    </g>
                                                </g>
                                            </g>
                                        </g>
                                    </g>
                                </g>
                                <path class="typst-shape" fill="none" transform="matrix(1 0 0 1 133.755 142.94250000000002)" d="M 0 0h 20.685 v 10.245 h -20.685 v -10.245 Z "/>
                                <g class="typst-group">
                                    <g>
                                        <g class="typst-group" transform="matrix(1 0 0 1 133.7549999055618 142.94249990551182)">
                                            <g>
                                                <g class="typst-group">
                                                    <g>
                                                        <g class="typst-text" transform="matrix(1 0 0 -1 0.00000000005000072447069752 10.244999999999997)">
                                                            <use xlink:href="#gC67AB9A19D7AEC0FD01FAD129CEC989D" x="0" y="0" fill="#1f2937" fill-rule="nonzero"/>
                                                        </g>
                                                        <g class="typst-text" transform="matrix(1 0 0 -1 11.65500000005 10.244999999999997)">
                                                            <use xlink:href="#g8098ECF495A916CB7971A11E8D780A60" x="0" y="0" fill="#1f2937" fill-rule="nonzero"/>
                                                        </g>
                                                    </g>
                                                </g>
                                            </g>
                                        </g>
                                    </g>
                                </g>
                            </g>
                        </g>
                    </g>
                </g>
                <g class="typst-group" transform="matrix(1 0 0 1 11.338582677165354 182.015)">
                    <g>
                        <g class="typst-group">
                            <g>
                                <g class="typst-text" transform="matrix(1 0 0 -1 0 5.88671875)">
                                    <use xlink:href="#gE520944E61305D1C34BD996168BDE2BE" x="0" y="0" fill="#4b5563" fill-rule="nonzero"/>
                                    <use xlink:href="#gC61570A7EEA4F1ABD0A9B6536ED59ACE" x="8" y="0" fill="#4b5563" fill-rule="nonzero"/>
                                </g>
                                <g class="typst-text" transform="matrix(1 0 0 -1 16 5.88671875)">
                                    <use xlink:href="#g7CF27281B9E91DEBFF16FF6982F4920D" x="0" y="0" fill="#4b5563" fill-rule="nonzero"/>
                                </g>
                                <g class="typst-text" transform="matrix(1 0 0 -1 24 5.88671875)">
                                    <use xlink:href="#gC3502AA448E77B358BD6B559AEFA803D" x="0" y="0" fill="#4b5563" fill-rule="nonzero"/>
                                    <use xlink:href="#g979932E666787D6C2AB5296841DE1072" x="8" y="0" fill="#4b5563" fill-rule="nonzero"/>
                                    <use xlink:href="#g390B34BF7E88EA42E0C457388E4B8CC8" x="16" y="0" fill="#4b5563" fill-rule="nonzero"/>
                                </g>
                                <g class="typst-text" transform="matrix(1 0 0 -1 48 5.88671875)">
                                    <use xlink:href="#g2C1A13E0F03DB3FD498424010865D37B" x="0" y="0" fill="#0f5f77" fill-rule="nonzero"/>
                                    <use xlink:href="#gE49BBF0DD58C962EC5EC576C1743A938" x="3.8531250000000004" y="0" fill="#0f5f77" fill-rule="nonzero"/>
                                    <use xlink:href="#g6B04975AAF9D7BD94D91BDF4124E09" x="7.706250000000001" y="0" fill="#0f5f77" fill-rule="nonzero"/>
                                    <use xlink:href="#gAA24EF919D1A9EBC3EAFEE5407EC7065" x="11.559375000000001" y="0" fill="#0f5f77" fill-rule="nonzero"/>
                                    <use xlink:href="#g37A53B66E1DE51E72DD780098B7EFF82" x="15.412500000000001" y="0" fill="#0f5f77" fill-rule="nonzero"/>
                                    <use xlink:href="#g3F79DF3245351141B73FC0914886758B" x="19.265625" y="0" fill="#0f5f77" fill-rule="nonzero"/>
                                    <use xlink:href="#g182D93627B783A91A50DA824C4A6D96D" x="23.11875" y="0" fill="#0f5f77" fill-rule="nonzero"/>
                                    <use xlink:href="#g37E57D23AD05B56C653875628C0787EF" x="26.971874999999997" y="0" fill="#0f5f77" fill-rule="nonzero"/>
                                    <use xlink:href="#gCC317004363F1B6D2FF3505843A50F34" x="30.824999999999996" y="0" fill="#0f5f77" fill-rule="nonzero"/>
                                    <use xlink:href="#gBEB9FD7EC5B75BFA28A47BD5B92B4FF8" x="34.678124999999994" y="0" fill="#0f5f77" fill-rule="nonzero"/>
                                    <use xlink:href="#g22B9FE78D3E70C05E8C58B6EEA8E0664" x="38.53124999999999" y="0" fill="#0f5f77" fill-rule="nonzero"/>
                                </g>
                                <g class="typst-text" transform="matrix(1 0 0 -1 90.384375 5.88671875)"/>
                                <g class="typst-text" transform="matrix(1 0 0 -1 92.384375 5.88671875)">
                                    <use xlink:href="#gECADE3147C33B41F8D057052C1F96E53" x="0" y="0" fill="#4b5563" fill-rule="nonzero"/>
                                </g>
                                <g class="typst-text" transform="matrix(1 0 0 -1 100.384375 5.88671875)">
                                    <use xlink:href="#g9197E49DE6462D67BAF5EA652133E201" x="0" y="0" fill="#4b5563" fill-rule="nonzero"/>
                                    <use xlink:href="#g5124B75CED24A397012E9ABBEDCC11D2" x="8" y="0" fill="#4b5563" fill-rule="nonzero"/>
                                </g>
                                <g class="typst-text" transform="matrix(1 0 0 -1 116.384375 5.88671875)">
                                    <use xlink:href="#g2956FC00D0E5EE55EC7E9620780BD348" x="0" y="0" fill="#4b5563" fill-rule="nonzero"/>
                                    <use xlink:href="#gD4A827AC777FE173186AB7FE563AF8D" x="8" y="0" fill="#4b5563" fill-rule="nonzero"/>
                                    <use xlink:href="#g5770953E535FEAC10BA68D41C034555C" x="16" y="0" fill="#4b5563" fill-rule="nonzero"/>
                                    <use xlink:href="#g9589AFC8C0C549F4BB4F913A62220C82" x="24" y="0" fill="#4b5563" fill-rule="nonzero"/>
                                    <use xlink:href="#g3BF2E7219161E8269744B9251C468F91" x="32" y="0" fill="#4b5563" fill-rule="nonzero"/>
                                </g>
                                <g class="typst-text" transform="matrix(1 0 0 -1 156.38437500000003 5.88671875)">
                                    <use xlink:href="#g1948001B7BA99CAC85DAC6807E74130A" x="0" y="0" fill="#4b5563" fill-rule="nonzero"/>
                                    <use xlink:href="#gD10BA195060D8332345042DDAEE73744" x="8" y="0" fill="#4b5563" fill-rule="nonzero"/>
                                </g>
                                <g class="typst-text" transform="matrix(1 0 0 -1 172.38437500000003 5.88671875)">
                                    <use xlink:href="#gAD27658FD1F322B71A0ABAECAE143F03" x="0" y="0" fill="#4b5563" fill-rule="nonzero"/>
                                </g>
                                <g class="typst-text" transform="matrix(1 0 0 -1 180.38437500000003 5.88671875)">
                                    <use xlink:href="#gB83DBB8B959F10E477B321ACAB7FCE2" x="0" y="0" fill="#4b5563" fill-rule="nonzero"/>
                                    <use xlink:href="#g329CB1AE9F9C696368D7B5415A5304BC" x="8" y="0" fill="#4b5563" fill-rule="nonzero"/>
                                </g>
                                <g class="typst-text" transform="matrix(1 0 0 -1 196.38437500000003 5.88671875)">
                                    <use xlink:href="#g906D32A83486F50C73E14B80DBD015B2" x="0" y="0" fill="#4b5563" fill-rule="nonzero"/>
                                    <use xlink:href="#g3BF2E7219161E8269744B9251C468F91" x="8" y="0" fill="#4b5563" fill-rule="nonzero"/>
                                    <use xlink:href="#gDFB12A2EDC95B031ACAC588364C5620E" x="16" y="0" fill="#4b5563" fill-rule="nonzero"/>
                                    <use xlink:href="#g7F961EFC826AE69C379F3EA95D645DDD" x="24" y="0" fill="#4b5563" fill-rule="nonzero"/>
                                    <use xlink:href="#gECADE3147C33B41F8D057052C1F96E53" x="32" y="0" fill="#4b5563" fill-rule="nonzero"/>
                                </g>
                            </g>
                        </g>
                        <g class="typst-group">
                            <g>
                                <g class="typst-text" transform="matrix(1 0 0 -1 0 16.9734375)">
                                    <use xlink:href="#g1B7E8D4B36DF60FF08C18EBF80FF7220" x="0" y="0" fill="#4b5563" fill-rule="nonzero"/>
                                </g>
                                <g class="typst-text" transform="matrix(1 0 0 -1 4.264 18.9494375)">
                                    <use xlink:href="#gA5E22C953F0472D0F35F299B64AE9042" x="0" y="0" fill="#4b5563" fill-rule="nonzero"/>
                                </g>
                                <g class="typst-text" transform="matrix(1 0 0 -1 7.512 16.9734375)"/>
                                <g class="typst-text" transform="matrix(1 0 0 -1 9.511999999999999 16.9734375)">
                                    <use xlink:href="#g7FEC3E9B711FD8EF9E6D6A6B57FEA29" x="0" y="0" fill="#4b5563" fill-rule="nonzero"/>
                                    <use xlink:href="#g9589AFC8C0C549F4BB4F913A62220C82" x="8" y="0" fill="#4b5563" fill-rule="nonzero"/>
                                    <use xlink:href="#g799C0F7683815FE42AC874285458142B" x="16" y="0" fill="#4b5563" fill-rule="nonzero"/>
                                </g>
                                <g class="typst-text" transform="matrix(1 0 0 -1 33.512 16.9734375)">
                                    <use xlink:href="#gA7EDE648AF8F0660750CEDD53D85224" x="0" y="0" fill="#4b5563" fill-rule="nonzero"/>
                                </g>
                                <g class="typst-text" transform="matrix(1 0 0 -1 41.512 16.9734375)">
                                    <use xlink:href="#gCC742F8A57B9E2494FD4DB735698E808" x="0" y="0" fill="#4b5563" fill-rule="nonzero"/>
                                </g>
                                <g class="typst-text" transform="matrix(1 0 0 -1 49.512 16.9734375)">
                                    <use xlink:href="#g53C3BFD00DF1523F5676D3678D6FD585" x="0" y="0" fill="#4b5563" fill-rule="nonzero"/>
                                </g>
                                <g class="typst-text" transform="matrix(1 0 0 -1 57.512 16.9734375)">
                                    <use xlink:href="#gAD27658FD1F322B71A0ABAECAE143F03" x="0" y="0" fill="#4b5563" fill-rule="nonzero"/>
                                </g>
                                <g class="typst-text" transform="matrix(1 0 0 -1 65.51200000000001 16.9734375)">
                                    <use xlink:href="#gEAAD90F0A5F5713E7AC1D44C8DCF9B8" x="0" y="0" fill="#4b5563" fill-rule="nonzero"/>
                                    <use xlink:href="#g5124B75CED24A397012E9ABBEDCC11D2" x="8" y="0" fill="#4b5563" fill-rule="nonzero"/>
                                </g>
                                <g class="typst-text" transform="matrix(1 0 0 -1 81.51200000000001 16.9734375)">
                                    <use xlink:href="#g6E325F2C33FE31FDA7054ECC2C76B818" x="0" y="0" fill="#4b5563" fill-rule="nonzero"/>
                                    <use xlink:href="#g5770953E535FEAC10BA68D41C034555C" x="8" y="0" fill="#4b5563" fill-rule="nonzero"/>
                                    <use xlink:href="#g9589AFC8C0C549F4BB4F913A62220C82" x="16" y="0" fill="#4b5563" fill-rule="nonzero"/>
                                    <use xlink:href="#g172D42DEB10755C13727EDEBD1F72260" x="24" y="0" fill="#4b5563" fill-rule="nonzero"/>
                                    <use xlink:href="#g906D32A83486F50C73E14B80DBD015B2" x="32" y="0" fill="#4b5563" fill-rule="nonzero"/>
                                    <use xlink:href="#g5E2367B1E7252A4E568F75D12A5A1541" x="40" y="0" fill="#4b5563" fill-rule="nonzero"/>
                                </g>
                            </g>
                        </g>
                    </g>
                </g>
            </g>
        </g>
    </g>
    <defs id="glyph">
        <symbol id="gB189CECAEC2188B4A391AEA2711EA57A" overflow="visible">
            <path d="M 0 0m 8.28 9.495 c 0 0.65999985 -0.645 1.0799999 -1.3499999 1.0799999 c -0.9299998 0 -1.5749998 -0.6000004 -1.9200001 -1.7849998 c -0.07499981 -0.27000046 -0.23999977 -1.0350003 -0.48000002 -2.295 h -0.9749999 c -0.32999992 0 -0.4949999 -0.0149998665 -0.4949999 -0.32999992 c 0 -0.16499996 0.1500001 -0.24000025 0.4649999 -0.24000025 h 0.89999986 l -1.0949998 -5.805 c -0.16499996 -0.85499996 -0.31500006 -1.485 -0.45000005 -1.905 c -0.17999983 -0.55499995 -0.43499994 -0.84000003 -0.76499987 -0.84000003 c -0.22500002 0 -0.4050001 0.059999943 -0.57000005 0.16499996 c 0.4799999 0.07500005 0.7199999 0.36000013 0.7199999 0.84000003 c 0 0.39 -0.19499993 0.58500004 -0.5999999 0.58500004 c -0.51 0 -0.87 -0.45000005 -0.87 -0.96000004 c 0 -0.65999997 0.615 -1.08 1.32 -1.08 c 0.375 0 0.72 0.1500001 1.0049999 0.46500015 c 0.48000002 0.4949999 0.855 1.1999999 1.125 2.145 c 0.16499996 0.585 0.31500006 1.155 0.42000008 1.725 l 0.8699999 4.665 h 1.23 c 0.3449998 0 0.4949999 0.015000343 0.4949999 0.36000013 c 0 0.13500023 -0.1500001 0.21000004 -0.4499998 0.21000004 h -1.1550002 c 0.09000015 0.6149998 0.5100002 2.88 0.645 3.165 c 0.1500001 0.31499958 0.36000013 0.46500015 0.6300001 0.46500015 c 0.2249999 0 0.42000008 -0.06000042 0.58500004 -0.16499996 c -0.46500015 -0.105000496 -0.7049999 -0.375 -0.7049999 -0.84000015 c 0 -0.39000034 0.1949997 -0.58500004 0.5999999 -0.58500004 c 0.50999975 0 0.8699999 0.4499998 0.8699999 0.96000004 Z "/>
        </symbol>
        <symbol id="gC67AB9A19D7AEC0FD01FAD129CEC989D" overflow="visible">
            <path d="M 0 0m 2.985 9.84 c 0 -0.15000057 0.16499996 -0.22500038 0.48000002 -0.22500038 c 0.60000014 0 0.89999986 -0.06000042 0.89999986 -0.1949997 c 0 -0.045000076 -0.029999733 -0.15000057 -0.07499981 -0.34500027 l -1.95 -7.845 c -0.089999914 -0.33000004 -0.24000001 -0.52500004 -0.44999993 -0.6 c -0.10500002 -0.030000031 -0.375 -0.045000017 -0.84000003 -0.045000017 c -0.32999998 0 -0.47999996 -0.029999971 -0.47999996 -0.34499997 c 0 -0.16499999 0.089999974 -0.24 0.28499997 -0.24 l 1.9499998 0.044999998 l 2.2200003 -0.044999998 c 0.23999977 0 0.35999966 0.12 0.35999966 0.345 c 0 0.25499997 -0.16499996 0.23999998 -0.5549998 0.23999998 c -0.65999985 0 -1.0350001 0.030000031 -1.125 0.10500002 c -0.045000076 0.014999986 -0.059999943 0.07499999 -0.059999943 0.14999998 l 0.96000004 3.9750001 h 1.395 c 0.69000006 0 1.1700001 -0.03000021 1.1700001 -0.6000004 c 0 -0.1949997 -0.03000021 -0.4349997 -0.10500002 -0.7199998 c -0.015000343 -0.045000076 -0.03000021 -0.10500002 -0.045000076 -0.16499996 c 0 -0.16499996 0.07499981 -0.24000001 0.23999977 -0.24000001 c 0.075000286 0.015000105 0.1800003 0.120000124 0.28499985 0.34500003 l 0.80999994 3.225 c 0.030000687 0.119999886 0.045000076 0.21000004 0.045000076 0.2550001 c -0.045000076 0.13499975 -0.13500023 0.21000004 -0.23999977 0.21000004 c -0.119999886 0 -0.21000004 -0.12000036 -0.26999998 -0.34500027 c -0.1500001 -0.5699997 -0.36000013 -0.9299998 -0.5999999 -1.1099997 c -0.24000025 -0.1800003 -0.6600003 -0.26999998 -1.2600002 -0.26999998 h -1.2749996 l 0.9299998 3.69 c 0.119999886 0.5099993 0.119999886 0.5249996 0.75 0.5249996 h 1.9500003 c 1.4549999 0 2.1149998 -0.22500038 2.1149998 -1.5600004 c 0 -0.2999997 -0.015000343 -0.5699997 -0.045000076 -0.7949996 c -0.015000343 -0.16499996 -0.029999733 -0.2550001 -0.029999733 -0.26999998 c 0 -0.16499996 0.07499981 -0.23999977 0.22499943 -0.23999977 c 0.15000057 0 0.23999977 0.13499975 0.27000046 0.42000008 l 0.29999924 2.5649996 c 0.045000076 0.42000008 -0.059999466 0.46500015 -0.4649992 0.46500015 h -7.26 c -0.34500003 0 -0.51 -0.015000343 -0.51 -0.35999966 Z "/>
        </symbol>
        <symbol id="gB58006A6F90D6EFA546DB974E8FCA849" overflow="visible">
            <path d="M 0 0m 2.415 2.9925 l -1.2075 0.8714998 c -0.16799998 0.13649988 -0.4095 0.0630002 -0.51449996 -0.11549997 c -0.10500002 -0.17849994 -0.042000055 -0.43050003 0.14699996 -0.5144999 l 1.365 -0.60899997 l -1.365 -0.5985 c -0.18900001 -0.08399999 -0.25199997 -0.33599997 -0.14699996 -0.5145 c 0.10499996 -0.17849994 0.34649998 -0.25199997 0.51449996 -0.12599993 l 1.2075 0.88199985 l -0.15750003 -1.4805 c -0.020999908 -0.22049999 0.16799998 -0.38849998 0.36750007 -0.38849998 c 0.19949985 0 0.38849998 0.16799998 0.36750007 0.38849998 l -0.15750003 1.4805 l 1.2075 -0.88199985 c 0.1784997 -0.12600005 0.40950012 -0.05250001 0.51450014 0.12599993 c 0.10499954 0.17850006 0.041999817 0.43050003 -0.14700031 0.5145 l -1.3649998 0.5985 l 1.3649998 0.60899997 c 0.18900013 0.08399987 0.25199986 0.33599997 0.14700031 0.5144999 c -0.10500002 0.17850018 -0.3465004 0.25199986 -0.51450014 0.11549997 l -1.2075 -0.8714998 l 0.15750003 1.4805 c 0.020999908 0.21000004 -0.16800022 0.38849974 -0.36750007 0.38849974 c -0.19950008 0 -0.38849998 -0.1784997 -0.36750007 -0.38849974 Z "/>
        </symbol>
        <symbol id="gB57FCA2C776E7106686B63537D9738A6" overflow="visible">
            <path d="M 0 0m 4.65 6.6299996 c -1.0350001 0 -1.9650002 -0.4499998 -2.79 -1.3349996 c -0.82500005 -0.8850002 -1.245 -1.8600001 -1.245 -2.91 c 0 -1.47 0.99 -2.55 2.46 -2.55 c 1.0350001 0 2.055 0.40499997 3.075 1.1999999 c 0.2249999 -0.79499996 0.6899996 -1.1999999 1.3799996 -1.1999999 c 0.53999996 0 1.3050003 0.57 1.3050003 1.11 c 0 0.13499993 -0.07499981 0.195 -0.23999977 0.195 c -0.105000496 0 -0.19500065 -0.060000062 -0.24000072 -0.18 c -0.119999886 -0.315 -0.43499994 -0.69 -0.77999973 -0.69 c -0.2550001 0 -0.38999987 0.48000002 -0.38999987 1.4549999 c 0 0.21000004 0.045000076 0.375 0.13499975 0.48000002 c 0.4050002 0.49500012 0.76500034 1.065 1.0500002 1.6949999 c 0.375 0.8100002 0.6000004 1.4100001 0.65999985 1.8 v 0.059999943 c -0.045000076 0.10500002 -0.13500023 0.1500001 -0.23999977 0.1500001 c -0.07499981 -0.0149998665 -0.16499996 -0.13499975 -0.27000046 -0.3449998 c -0.31499958 -1.0799999 -0.7499995 -2.0100002 -1.3349996 -2.775 v 0.75 c 0 1.7399998 -0.8699999 3.0899997 -2.5349998 3.0899997 Z m 1.395 -3.4649997 c 0 -0.885 0.0149998665 -1.425 0.029999733 -1.62 c -0.9749999 -0.85499996 -1.9649997 -1.275 -2.9699998 -1.275 c -0.855 0 -1.2750001 0.525 -1.2750001 1.56 c 0 0.8700001 0.49500012 2.4899998 0.8399999 3.0299997 c 0.5700002 0.8850002 1.23 1.335 1.9649999 1.335 c 0.46500015 0 0.7800002 -0.17999983 0.9749999 -0.53999996 c 0.10500002 -0.17999983 0.1800003 -0.35999966 0.2550001 -0.5249996 c 0.119999886 -0.34500027 0.1800003 -1.2600002 0.1800003 -1.9650002 Z "/>
        </symbol>
        <symbol id="g8098ECF495A916CB7971A11E8D780A60" overflow="visible">
            <path d="M 0 0m 6.4049997 10.59 c -1.935 0 -3.225 -2.295 -3.6749997 -4.11 l -2.28 -9.15 c 0 -0.1650002 0.07499999 -0.24000001 0.20999998 -0.24000001 h 0.07499999 c 0.10500002 0 0.18 0.044999838 0.19500005 0.14999986 l 0.96 3.87 c 0.33000004 -0.87 0.975 -1.3050001 1.9349998 -1.3050001 c 0.9300003 0 1.7849998 0.285 2.5500002 0.87 c 1.065 0.7949999 1.605 1.8299999 1.605 3.075 c 0 1.0050001 -0.34500027 1.7550001 -1.0350003 2.25 c 0.855 0.5249996 1.3950005 1.1999998 1.5900002 2.0100002 c 0.045000076 0.1949997 0.07499981 0.3899994 0.07499981 0.55499935 c 0 1.2449999 -1.0049996 2.0250006 -2.205 2.0250006 Z m -1.815 -4.6050005 c 0.075000286 0.045000076 0.34500027 0.06000042 0.7800002 0.06000042 c 0.10500002 0 0.19500017 -0.015000343 0.3000002 -0.03000021 c -0.1500001 -0.03000021 -0.28500032 -0.045000076 -0.42000008 -0.045000076 h -0.26999998 c -0.16499996 0 -0.3000002 0 -0.39000034 0.0149998665 Z m -2.3699996 -3.9149997 c 0 0.24000001 0.029999971 0.48000002 0.089999914 0.72 l 0.885 3.6 c 0.40499997 1.6200004 1.4849999 3.7350001 3.195 3.7350001 c 0.855 0 1.2750001 -0.43500042 1.2750001 -1.29 c 0 -0.21000004 -0.03000021 -0.4499998 -0.10500002 -0.7350006 c -0.21000004 -0.8399997 -0.5999999 -1.4399996 -1.185 -1.7849994 c -0.32999992 0.119999886 -0.6600003 0.17999983 -0.99000025 0.17999983 c -0.65999985 0 -1.335 -0.0149998665 -1.335 -0.5549998 c 0 -0.10500002 0.045000076 -0.19500017 0.12000036 -0.2550001 c 0.13499975 -0.10500002 0.48000002 -0.16499996 1.0649996 -0.16499996 c 0.375 0 0.75 0.059999943 1.0950003 0.17999983 c 0.40499973 -0.32999992 0.6149998 -0.84000015 0.6149998 -1.5299997 c 0 -0.37500024 -0.059999943 -0.8100002 -0.17999983 -1.2750001 c -0.3449998 -1.35 -1.3649998 -2.6399999 -2.925 -2.6399999 c -1.02 0 -1.6199999 0.765 -1.6199999 1.8149999 Z "/>
        </symbol>
        <symbol id="gE520944E61305D1C34BD996168BDE2BE" overflow="visible">
            <path d="M 0 0m 7 5.046875 q -0.19921875 -0.04296875 -0.45507813 -0.13867188 q -0.25585938 -0.095703125 -0.42382813 -0.17578125 q -0.16796875 -0.080078125 -1.296875 -0.6503906 l -0.27734375 0.390625 q 0.390625 0.2109375 1.1914063 0.6171875 l -0.015625 0.078125 q -1.3984375 -0.0234375 -4.1953125 -0.12890625 l -0.03125 0.546875 q 1.5429688 0.05859375 4.2304688 0.05859375 q 0.85546875 0 1.1367188 -0.01171875 l 0.13671875 -0.5859375 Z m 0.2734375 -4.9648438 q -1.1679688 -0.1796875 -2.6289063 -0.1796875 h -0.4609375 q -1.8515625 0 -2.5058594 0.375 q -0.6542969 0.375 -0.6542969 1.0742188 q 0 0.8515625 0.80078125 1.5507813 l 0.42578125 -0.31640625 q -0.6328125 -0.62109375 -0.6328125 -1.1914063 q 0 -0.49609375 0.5683594 -0.71484375 q 0.5683594 -0.21875 2.3183594 -0.21875 q 1.359375 0 2.671875 0.1953125 l 0.09765625 -0.57421875 Z "/>
        </symbol>
        <symbol id="gC61570A7EEA4F1ABD0A9B6536ED59ACE" overflow="visible">
            <path d="M 0 0m 4.171875 -0.16015625 l -0.15234375 0.52734375 q 1.2578125 0.11328125 2.1503906 0.73046875 q 0.8925781 0.6171875 0.8925781 1.84375 q 0 1.09375 -0.7207031 1.6914063 q -0.7207031 0.59765625 -2.0097656 0.6328125 q -0.04296875 -2.1015625 -0.75390625 -3.5078125 q -0.7109375 -1.40625 -1.78125 -1.40625 q -0.6640625 0 -1.0449219 0.5644531 q -0.38085938 0.5644531 -0.38085938 1.3769531 q 0 1.3398438 1.15625 2.4082031 q 1.15625 1.0683594 2.7382813 1.0683594 q 1.4882813 0 2.453125 -0.7441406 q 0.96484375 -0.7441406 0.96484375 -2.0332031 q 0 -1.46875 -0.97265625 -2.2460938 q -0.97265625 -0.77734375 -2.5390625 -0.90625 Z m -0.453125 5.375 q -1.1328125 -0.171875 -1.9492188 -1.0253906 q -0.81640625 -0.8535156 -0.81640625 -1.9277344 q 0 -0.5703125 0.23828125 -0.9667969 q 0.23828125 -0.39648438 0.6640625 -0.39648438 q 0.73046875 0 1.2734375 1.3652344 q 0.54296875 1.3652344 0.58984375 2.9511719 Z "/>
        </symbol>
        <symbol id="g7CF27281B9E91DEBFF16FF6982F4920D" overflow="visible">
            <path d="M 0 0m 6.7929688 -0.1171875 h -5.6484375 v -0.3359375 h -0.5703125 v 6.8007813 h 6.8203125 v -6.8007813 h -0.6015625 v 0.3359375 Z m -5.6484375 0.45703125 h 5.6484375 v 5.5507813 h -5.6484375 v -5.5507813 Z m 2.921875 3.5664063 q -0.11328125 0.32421875 -0.671875 1.4179688 l 0.5234375 0.1796875 q 0.390625 -0.734375 0.66796875 -1.4023438 l -0.51953125 -0.1953125 Z m -1.40625 -0.3359375 q -0.515625 0.96484375 -0.8203125 1.421875 l 0.49609375 0.234375 q 0.23046875 -0.34375 0.84765625 -1.4101563 l -0.5234375 -0.24609375 Z m 3.3085938 -2.6171875 q -0.66796875 0.47265625 -2.0234375 1.1132813 q -1 -0.75390625 -2.0429688 -1.1640625 l -0.2421875 0.41796875 q 0.91015625 0.37109375 1.7460938 0.9921875 q -0.9296875 0.4140625 -1.625 0.671875 l 0.2265625 0.40625 q 0.625 -0.20703125 1.8203125 -0.7421875 q 1.34375 1.1523438 1.96875 2.5390625 l 0.5625 -0.1875 q -0.66796875 -1.4453125 -1.9921875 -2.59375 q 1.421875 -0.65625 1.9257813 -0.98828125 l -0.32421875 -0.46484375 Z "/>
        </symbol>
        <symbol id="gC3502AA448E77B358BD6B559AEFA803D" overflow="visible">
            <path d="M 0 0m 7.2265625 5.0820313 h -1.9570313 q -0.71484375 -0.3046875 -1.3925781 -1.1152344 q -0.6777344 -0.8105469 -0.6777344 -1.6855469 q 0 -0.67578125 0.359375 -1.1269531 q 0.359375 -0.45117188 0.9609375 -0.66015625 q 0.6015625 -0.20898438 1.59375 -0.20898438 q 0.23046875 0 0.47265625 0.01171875 l -0.0390625 -0.578125 h -0.01953125 q -0.72265625 0 -1.1992188 0.025390625 q -0.4765625 0.025390625 -1.0039063 0.19140625 q -0.52734375 0.16601563 -0.9296875 0.5058594 q -0.40234375 0.33984375 -0.59765625 0.78515625 q -0.1953125 0.4453125 -0.1953125 1.0078125 q 0 0.78515625 0.47851563 1.5566406 q 0.47851563 0.7714844 1.2636719 1.3066406 h -3.9179688 v 0.51953125 h 6.8007813 v -0.53515625 Z m 0.16796875 -1.4257813 l -0.44921875 -0.18359375 q -0.26171875 0.60546875 -0.55859375 1.078125 l 0.4140625 0.203125 q 0.26953125 -0.421875 0.59375 -1.0976563 Z m -1.1367188 -0.23828125 l -0.44921875 -0.203125 q -0.28125 0.6328125 -0.56640625 1.0976563 l 0.421875 0.19140625 q 0.33984375 -0.52734375 0.59375 -1.0859375 Z "/>
        </symbol>
        <symbol id="g979932E666787D6C2AB5296841DE1072" overflow="visible">
            <path d="M 0 0m 7.8164063 0.7109375 l -0.3515625 -0.48046875 q -0.37890625 0.34375 -1.3515625 0.96875 v -0.23828125 q 0 -0.59375 -0.39257813 -0.8886719 q -0.39257813 -0.29492188 -1.3339844 -0.29492188 q -0.63671875 0 -1.0917969 0.30859375 q -0.45507813 0.30859375 -0.45507813 0.828125 q 0 0.53125 0.43359375 0.8613281 q 0.43359375 0.33007813 1.046875 0.33007813 q 0.6015625 0 1.171875 -0.14453125 v 2.3085938 h -2.7460938 v 0.52734375 h 2.7460938 v 1.4335938 h 0.61328125 v -1.4335938 h 1.4570313 v -0.52734375 h -1.4570313 v -2.5234375 q 0.91015625 -0.3671875 1.7109375 -1.0351563 Z m -2.2890625 0.25 v 0.47265625 q -0.46875 0.19921875 -1.1953125 0.19921875 q -0.40625 -0.00390625 -0.6660156 -0.18554688 q -0.25976563 -0.18164063 -0.25976563 -0.5019531 q 0 -0.31640625 0.30078125 -0.49414063 q 0.30078125 -0.17773438 0.71484375 -0.17773438 q 1.1054688 0 1.1054688 0.6875 Z m -3.6953125 -1.0390625 l -0.58203125 -0.12890625 q -0.3984375 1.2851563 -0.3984375 2.7890625 q 0 1.640625 0.53515625 3.5390625 l 0.59765625 -0.10546875 q -0.53515625 -1.765625 -0.53515625 -3.3671875 q 0 -1.4140625 0.3828125 -2.7265625 Z "/>
        </symbol>
        <symbol id="g390B34BF7E88EA42E0C457388E4B8CC8" overflow="visible">
            <path d="M 0 0m 2.390625 -0.0390625 l -0.53515625 -0.34375 q -0.5078125 0.8359375 -1.2148438 1.6640625 l 0.45703125 0.3203125 q 0.85546875 -1.0117188 1.2929688 -1.640625 Z "/>
        </symbol>
        <symbol id="g2C1A13E0F03DB3FD498424010865D37B" overflow="visible">
            <path d="M 0 0m 0.72812504 4.665625 h 2.746875 v -0.53125 h -2.1125002 v -1.375 h 1.915625 v -0.53125 h -1.915625 v -2.228125 h -0.63437504 v 4.665625 Z "/>
        </symbol>
        <symbol id="gE49BBF0DD58C962EC5EC576C1743A938" overflow="visible">
            <path d="M 0 0m 0.609375 1.325 v 2.16875 h 0.57500005 v -2.16875 q 0 -0.471875 0.16718745 -0.69375 q 0.16718757 -0.22187501 0.5171875 -0.22187501 q 0.40625012 0 0.62187517 0.2859375 q 0.21562481 0.2859375 0.21562481 0.8203125 v 1.9781251 h 0.578125 v -3.49375 h -0.578125 v 0.52500004 q -0.15312481 -0.30312502 -0.41718745 -0.45937502 q -0.2640624 -0.15625 -0.6171875 -0.15625 q -0.5375 0 -0.8 0.3515625 q -0.2625 0.3515625 -0.2625 1.0640626 Z "/>
        </symbol>
        <symbol id="g6B04975AAF9D7BD94D91BDF4124E09" overflow="visible">
            <path d="M 0 0m 3.284375 2.16875 v -2.16875 h -0.578125 v 2.16875 q 0 0.47187495 -0.16562486 0.6937499 q -0.1656251 0.22187519 -0.51874995 0.22187519 q -0.40312517 0 -0.6203126 -0.28593755 q -0.21718752 -0.28593755 -0.21718752 -0.8203126 v -1.978125 h -0.57500005 v 3.5 h 0.57500005 v -0.52499986 q 0.15312493 0.29999995 0.41562498 0.45468736 q 0.26250005 0.15468764 0.6218749 0.15468764 q 0.5343752 0 0.7984376 -0.3515625 q 0.2640624 -0.3515625 0.2640624 -1.0640626 Z "/>
        </symbol>
        <symbol id="gAA24EF919D1A9EBC3EAFEE5407EC7065" overflow="visible">
            <path d="M 0 0m 3.315625 0.17812501 q -0.23124981 -0.134375 -0.4765625 -0.20156251 q -0.24531245 -0.0671875 -0.50156236 -0.0671875 q -0.8125001 0 -1.2703125 0.4875 q -0.45781255 0.48750004 -0.45781255 1.35 q 0 0.86249995 0.45781255 1.3499999 q 0.45781243 0.4875002 1.2703125 0.4875002 q 0.25312495 0 0.49374986 -0.06562519 q 0.24062514 -0.06562495 0.484375 -0.203125 v -0.60312486 q -0.22812486 0.203125 -0.4578123 0.29375005 q -0.22968769 0.09062481 -0.52031255 0.09062481 q -0.5406251 0 -0.8312501 -0.3499999 q -0.29062498 -0.3499999 -0.29062498 -1 q 0 -0.646875 0.29218745 -0.9984375 q 0.29218757 -0.35156253 0.8296876 -0.35156253 q 0.29999995 0 0.5374999 0.092187524 q 0.23749995 0.092187494 0.44062495 0.28593752 v -0.596875 Z "/>
        </symbol>
        <symbol id="g37A53B66E1DE51E72DD780098B7EFF82" overflow="visible">
            <path d="M 0 0m 1.91875 4.49375 v -0.9937501 h 1.3062501 v -0.44687486 h -1.3062501 v -1.9000001 q 0 -0.38750005 0.1468749 -0.54062504 q 0.14687514 -0.15312502 0.51250005 -0.15312502 h 0.64687514 v -0.459375 h -0.703125 q -0.64687514 0 -0.91250014 0.259375 q -0.265625 0.259375 -0.265625 0.8937501 v 1.9000001 h -0.934375 v 0.44687486 h 0.934375 v 0.9937501 h 0.57500005 Z "/>
        </symbol>
        <symbol id="g3F79DF3245351141B73FC0914886758B" overflow="visible">
            <path d="M 0 0m 1.9250001 3.096875 q -0.4375 0 -0.6625 -0.3406248 q -0.22500002 -0.34062505 -0.22500002 -1.0093751 q 0 -0.665625 0.22500002 -1.0078125 q 0.22500002 -0.3421875 0.6625 -0.3421875 q 0.44062507 0 0.665625 0.3421875 q 0.2249999 0.34218758 0.2249999 1.0078125 q 0 0.66875005 -0.2249999 1.0093751 q -0.2249999 0.3406248 -0.665625 0.3406248 Z m 0 0.4875002 q 0.728125 0 1.1140624 -0.4718752 q 0.38593745 -0.47187495 0.38593745 -1.3656249 q 0 -0.896875 -0.38437486 -1.3671875 q -0.3843751 -0.47031254 -1.115625 -0.47031254 q -0.7281251 0 -1.1125001 0.47031254 q -0.384375 0.4703125 -0.384375 1.3671875 q 0 0.89374995 0.384375 1.3656249 q 0.38437498 0.4718752 1.1125001 0.4718752 Z "/>
        </symbol>
        <symbol id="g182D93627B783A91A50DA824C4A6D96D" overflow="visible">
            <path d="M 0 0m 3.609375 2.778125 q -0.18437505 0.14374995 -0.375 0.2093749 q -0.19062495 0.06562519 -0.41875005 0.06562519 q -0.5374999 0 -0.821875 -0.3375001 q -0.28437495 -0.3375001 -0.28437495 -0.975 v -1.740625 h -0.578125 v 3.5 h 0.578125 v -0.68437505 q 0.14374995 0.37187505 0.44218743 0.5703125 q 0.2984376 0.19843769 0.70781255 0.19843769 q 0.2125001 0 0.39687514 -0.053125143 q 0.18437481 -0.053124905 0.35312486 -0.16562486 v -0.5875001 Z "/>
        </symbol>
        <symbol id="g37E57D23AD05B56C653875628C0787EF" overflow="visible">
            <path d="M 0 0m 1.528125 0.953125 h 0.7874999 v -0.953125 h -0.7874999 v 0.953125 Z "/>
        </symbol>
        <symbol id="gCC317004363F1B6D2FF3505843A50F34" overflow="visible">
            <path d="M 0 0m 2.1125 3.14375 q 0.10625005 0.22500014 0.27031255 0.33281255 q 0.1640625 0.10781264 0.39531255 0.10781264 q 0.421875 0 0.5953126 -0.32656264 q 0.17343736 -0.3265624 0.17343736 -1.2296875 v -2.028125 h -0.52499986 v 2.003125 q 0 0.74062514 -0.08281255 0.92031264 q -0.08281255 0.1796875 -0.30156255 0.1796875 q -0.25 0 -0.3421874 -0.19218755 q -0.09218764 -0.19218755 -0.09218764 -0.9078126 v -2.003125 h -0.525 v 2.003125 q 0 0.75 -0.08906245 0.9250002 q -0.08906257 0.17499995 -0.3203125 0.17499995 q -0.2281251 0 -0.31718755 -0.19218755 q -0.08906251 -0.19218755 -0.08906251 -0.9078126 v -2.003125 h -0.521875 v 3.5 h 0.521875 v -0.29999995 q 0.103124976 0.1875 0.25781256 0.28593755 q 0.1546874 0.09843755 0.3515625 0.09843755 q 0.23749995 0 0.39531243 -0.109375 q 0.1578126 -0.109375 0.24531245 -0.3312502 Z "/>
        </symbol>
        <symbol id="gBEB9FD7EC5B75BFA28A47BD5B92B4FF8" overflow="visible">
            <path d="M 0 0m 2.1937501 1.759375 h -0.19062519 q -0.50312495 0 -0.7578124 -0.17656243 q -0.25468755 -0.17656255 -0.25468755 -0.5265626 q 0 -0.31562495 0.19062495 -0.49062496 q 0.19062507 -0.17500001 0.52812505 -0.17500001 q 0.47500002 0 0.7468749 0.32968754 q 0.27187514 0.32968754 0.2750001 0.9109375 v 0.12812495 h -0.5374999 Z m 1.1156249 0.23750007 v -1.996875 h -0.578125 v 0.51875 q -0.18437505 -0.3125 -0.46406245 -0.4609375 q -0.27968752 -0.1484375 -0.6796876 -0.1484375 q -0.53437495 0 -0.853125 0.3015625 q -0.31875 0.3015625 -0.31875 0.8078126 q 0 0.5843749 0.3921875 0.8874999 q 0.39218754 0.30312514 1.1515625 0.30312514 h 0.771875 v 0.09062481 q -0.0031249523 0.41875005 -0.2125001 0.60781264 q -0.2093749 0.18906236 -0.6687499 0.18906236 q -0.29375005 0 -0.59375 -0.084374905 q -0.3 -0.084374905 -0.584375 -0.24687505 v 0.57500005 q 0.31875002 0.12187505 0.6109375 0.18281245 q 0.29218757 0.060937643 0.56718755 0.060937643 q 0.43437493 0 0.7421876 -0.12812519 q 0.30781245 -0.12812495 0.4984374 -0.38437486 q 0.118750095 -0.15625 0.16875005 -0.38593745 q 0.049999952 -0.22968769 0.049999952 -0.6890626 Z "/>
        </symbol>
        <symbol id="g22B9FE78D3E70C05E8C58B6EEA8E0664" overflow="visible">
            <path d="M 0 0m 1.171875 0.440625 v -1.7718751 h -0.578125 v 4.83125 h 0.578125 v -0.44687486 q 0.14375007 0.25937486 0.3828125 0.3953123 q 0.23906255 0.13593769 0.55156255 0.13593769 q 0.6343751 0 0.99531245 -0.49062514 q 0.3609376 -0.4906249 0.3609376 -1.359375 q 0 -0.853125 -0.36249995 -1.3390625 q -0.3625002 -0.48593754 -0.9937501 -0.48593754 q -0.31875002 0 -0.5578126 0.13593751 q -0.23906243 0.13593751 -0.37656248 0.39531252 Z m 1.6875 1.3062501 q 0 0.66875005 -0.2109375 1.0093751 q -0.2109375 0.3406248 -0.62656236 0.3406248 q -0.41875017 0 -0.6343751 -0.3421874 q -0.21562505 -0.3421874 -0.21562505 -1.0078125 q 0 -0.6625 0.21562505 -1.00625 q 0.21562493 -0.34375003 0.6343751 -0.34375003 q 0.41562486 0 0.62656236 0.34062502 q 0.2109375 0.340625 0.2109375 1.0093751 Z "/>
        </symbol>
        <symbol id="gECADE3147C33B41F8D057052C1F96E53" overflow="visible">
            <path d="M 0 0m 1.9375 -0.078125 l -0.55859375 -0.12890625 q -0.40234375 1.2851563 -0.40234375 2.7890625 q 0 1.640625 0.53515625 3.5390625 l 0.6015625 -0.10546875 q -0.5390625 -1.7773438 -0.5390625 -3.4648438 q 0 -1.3867188 0.36328125 -2.6289063 Z m 5.2890625 5.1601563 q -0.62109375 0.01171875 -1.171875 0.01171875 q -0.80859375 0 -2.9257813 -0.109375 q 0 0.17578125 -0.0234375 0.52734375 q 2.0117188 0.1171875 3.2695313 0.1171875 q 0.625 0 0.83203125 -0.01171875 v -0.03515625 q 0 -0.1796875 0.01953125 -0.5 Z m 0.046875 -4.96875 q -0.81640625 -0.0859375 -1.5976563 -0.0859375 q -1.0859375 0 -1.6230469 0.12695313 q -0.5371094 0.12695313 -0.8144531 0.41992188 q -0.27734375 0.29296875 -0.27734375 0.75390625 q 0 0.671875 0.5859375 1.4179688 l 0.453125 -0.2421875 q -0.48046875 -0.52734375 -0.48046875 -1.140625 q 0 -0.3046875 0.25976563 -0.4921875 q 0.25976563 -0.1875 0.6953125 -0.24804688 q 0.43554688 -0.060546875 1.2363281 -0.060546875 q 0.8125 0 1.5625 0.09375 v -0.54296875 Z "/>
        </symbol>
        <symbol id="g9197E49DE6462D67BAF5EA652133E201" overflow="visible">
            <path d="M 0 0m 7.6289063 -0.46875 q -1.7226563 0.28125 -3.1171875 1.0859375 q -0.78125 -0.86328125 -2.0898438 -1.1132813 l -0.1640625 0.43359375 q 1.0859375 0.25 1.7617188 0.98828125 q -0.63671875 0.43359375 -1.0859375 0.87109375 l 0.38671875 0.3203125 q 0.421875 -0.4296875 1.0039063 -0.80078125 q 0.25 0.40234375 0.3203125 1.0117188 h -1.9453125 v 2.3359375 h 1.9804688 v 0.75 h -2.1835938 v 0.46484375 h 2.1835938 v 0.78125 h 0.61328125 v -0.78125 h 2.3671875 v -0.46484375 h -2.3671875 v -0.75 h 2.015625 v -2.3359375 h -2.0507813 q -0.08984375 -0.78515625 -0.421875 -1.2890625 l -0.0078125 -0.015625 q 1.4648438 -0.76953125 3.0585938 -0.99609375 l -0.2578125 -0.49609375 Z m -0.9140625 4.7070313 h -1.421875 v -1.0859375 q 0 -0.2734375 -0.00390625 -0.3828125 h 1.4257813 v 1.46875 Z m -2.0351563 0 h -1.3867188 v -1.46875 h 1.3828125 q 0.00390625 0.109375 0.00390625 0.44921875 v 1.0195313 Z m -3.4296875 -4.7421875 v 4.1289063 q -0.4140625 -0.75 -0.83984375 -1.2734375 l -0.359375 0.328125 q 0.5546875 0.765625 1.0644531 1.8964844 q 0.5097656 1.1308594 0.7207031 2.0449219 l 0.62109375 -0.09765625 q -0.26171875 -1.0078125 -0.80078125 -2.1484375 h 0.1875 v -4.8789063 h -0.59375 Z "/>
        </symbol>
        <symbol id="g5124B75CED24A397012E9ABBEDCC11D2" overflow="visible">
            <path d="M 0 0m 6.6015625 2.03125 h -2.1953125 v -2.4335938 h -0.60546875 v 2.4335938 h -2.1757813 q -0.1953125 -1.5039063 -1.046875 -2.546875 l -0.421875 0.28515625 q 0.515625 0.703125 0.7265625 1.5332031 q 0.2109375 0.8300781 0.2109375 1.8847656 v 3.0859375 h 6.1289063 v -6.078125 q 0 -0.234375 -0.21679688 -0.40625 q -0.21679688 -0.171875 -0.49414063 -0.171875 h -1.0703125 l -0.08984375 0.5546875 h 0.8828125 q 0.3671875 0 0.3671875 0.30859375 v 1.5507813 Z m 0 2.3984375 v 1.3867188 h -2.1953125 v -1.3867188 h 2.1953125 Z m -2.8007813 1.3867188 h -2.09375 v -1.3867188 h 2.09375 v 1.3867188 Z m -2.1328125 -3.2890625 h 2.1328125 v 1.4296875 h -2.09375 v -0.65234375 q 0 -0.11328125 -0.0390625 -0.77734375 Z m 2.7382813 0 h 2.1953125 v 1.4296875 h -2.1953125 v -1.4296875 Z "/>
        </symbol>
        <symbol id="g2956FC00D0E5EE55EC7E9620780BD348" overflow="visible">
            <path d="M 0 0m 6.8398438 0 q -0.9140625 -0.24609375 -2.2148438 -0.24609375 q -3.4335938 0 -3.4335938 1.5976563 q 0 0.828125 0.7109375 1.2910156 q 0.7109375 0.46289063 1.7929688 0.46289063 q 0.89453125 0 1.8164063 -0.16796875 q -0.359375 0.5078125 -0.8828125 1.5195313 h -3.8125 v 0.51171875 h 3.5703125 q -0.23828125 0.5859375 -0.39453125 1.2539063 l 0.609375 0.08984375 q 0.171875 -0.76171875 0.4140625 -1.34375 h 2.578125 v -0.51171875 h -2.3359375 q 0.7265625 -1.4023438 1.421875 -1.890625 l -0.28515625 -0.4609375 q -0.9296875 0.50390625 -2.6640625 0.50390625 q -0.8125 0 -1.359375 -0.32421875 q -0.546875 -0.32421875 -0.546875 -0.91015625 q 0 -1.09375 2.8242188 -1.09375 q 1.0742188 0 2.0742188 0.24609375 l 0.1171875 -0.52734375 Z "/>
        </symbol>
        <symbol id="gD4A827AC777FE173186AB7FE563AF8D" overflow="visible">
            <path d="M 0 0m 1.9375 2.5664063 q -0.44140625 -0.66015625 -1.3515625 -1.9414063 l -0.41015625 0.3984375 q 0.4296875 0.51953125 0.9863281 1.3789063 q 0.5566406 0.859375 0.7753906 1.3710938 v 0.84375 h -1.4257813 v 0.51171875 h 1.4257813 v 1.2695313 h 0.58984375 v -2.3984375 q 0.703125 0.7109375 1.4785156 1.1835938 q 0.7753906 0.47265625 1.3496094 0.4765625 q 0.5546875 0 0.9042969 -0.32226563 q 0.34960938 -0.32226563 0.35351563 -0.8496094 q 0 -0.046875 -0.00390625 -0.09765625 l -0.23046875 -2.5546875 q -0.078125 -0.87109375 -0.078125 -0.921875 q 0 -0.48828125 0.41015625 -0.48828125 q 0.33203125 0 1.0195313 0.3828125 l 0.16015625 -0.48828125 q -0.6875 -0.45703125 -1.3242188 -0.45703125 q -0.41796875 0 -0.64453125 0.25976563 q -0.2265625 0.25976563 -0.2265625 0.7167969 q 0 0.1328125 0.18359375 1.859375 q 0.10546875 1.0195313 0.125 1.7617188 q 0 0.27734375 -0.16796875 0.45703125 q -0.16796875 0.1796875 -0.453125 0.1796875 q -1.0546875 0 -2.8554688 -1.8476563 v -3.5390625 h -0.58984375 v 2.8554688 Z "/>
        </symbol>
        <symbol id="g5770953E535FEAC10BA68D41C034555C" overflow="visible">
            <path d="M 0 0m 7.3046875 5.0820313 h -1.9570313 q -0.71484375 -0.3046875 -1.390625 -1.1152344 q -0.67578125 -0.8105469 -0.67578125 -1.6855469 q 0 -0.67578125 0.359375 -1.1269531 q 0.359375 -0.45117188 0.9589844 -0.66015625 q 0.5996094 -0.20898438 1.5957031 -0.20898438 q 0.2265625 0 0.46875 0.01171875 l -0.0390625 -0.578125 h -0.01953125 q -0.72265625 0 -1.1972656 0.025390625 q -0.47460938 0.025390625 -1.0039063 0.19140625 q -0.5292969 0.16601563 -0.9316406 0.5058594 q -0.40234375 0.33984375 -0.59765625 0.78515625 q -0.1953125 0.4453125 -0.1953125 1.0078125 q 0 0.78515625 0.48046875 1.5566406 q 0.48046875 0.7714844 1.2617188 1.3066406 h -3.9179688 v 0.51953125 h 6.8007813 v -0.53515625 Z "/>
        </symbol>
        <symbol id="g9589AFC8C0C549F4BB4F913A62220C82" overflow="visible">
            <path d="M 0 0m 3.9375 2.0625 q -0.1328125 -0.37109375 -0.41992188 -0.90625 q -0.28710938 -0.53515625 -0.5859375 -0.8925781 q -0.29882813 -0.35742188 -0.6191406 -0.35742188 q -0.1953125 0 -0.34765625 0.09375 q -0.15234375 0.09375 -0.3984375 0.36328125 q -0.24609375 0.26953125 -0.45117188 0.7402344 q -0.20507813 0.47070313 -0.30273438 0.9863281 q -0.09765625 0.515625 -0.09765625 1.0039063 q 0 0.4375 0.08984375 1.2382813 q 0.09375 0.83984375 0.1015625 1.2265625 h 0.65625 q -0.015625 -0.3515625 -0.125 -1.2265625 q -0.09765625 -0.78125 -0.09765625 -1.234375 q 0 -0.6796875 0.14257813 -1.2207031 q 0.14257813 -0.5410156 0.4140625 -0.9316406 q 0.27148438 -0.390625 0.39648438 -0.390625 q 0.203125 0 0.546875 0.5566406 q 0.34375 0.5566406 0.6171875 1.2011719 l 0.48046875 -0.25 Z m 3.5742188 -1.1484375 l -0.65625 -0.01953125 v 0.0703125 q 0 1.15625 -0.375 2.25 q -0.375 1.09375 -1.0703125 1.953125 l 0.48046875 0.3046875 q 1.59375 -1.8242188 1.6210938 -4.5585938 Z "/>
        </symbol>
        <symbol id="g3BF2E7219161E8269744B9251C468F91" overflow="visible">
            <path d="M 0 0m 5.0703125 0.28515625 q 1.4648438 0.3515625 1.4648438 1.5078125 q 0 0.71484375 -0.5390625 1.1054688 q -0.5390625 0.390625 -1.4375 0.390625 q -0.6171875 0 -1.2050781 -0.15625 q -0.5878906 -0.15625 -1.3515625 -0.63671875 q -0.7636719 -0.48046875 -1.0644531 -0.734375 l -0.2890625 0.48046875 q 2.3789063 1.5351563 4.6484375 3.2304688 l -3.953125 -0.015625 v 0.51953125 h 4.7695313 l 0.2734375 -0.3984375 l -2.7539063 -1.90625 l 0.03125 -0.046875 q 0.4765625 0.14453125 0.94921875 0.14453125 q 1.1210938 0 1.8417969 -0.515625 q 0.7207031 -0.515625 0.7207031 -1.4257813 q 0 -1.0664063 -0.8828125 -1.6269531 q -0.8828125 -0.5605469 -2.3671875 -0.5605469 q -2.0390625 0 -2.0390625 1.1210938 q 0 0.44140625 0.421875 0.7421875 q 0.421875 0.30078125 0.92578125 0.30078125 q 0.70703125 0 1.2109375 -0.39453125 q 0.50390625 -0.39453125 0.625 -1.125 Z m -0.57421875 -0.1015625 q -0.2265625 1.1210938 -1.21875 1.1210938 q -0.31640625 0 -0.5683594 -0.15625 q -0.25195313 -0.15625 -0.25195313 -0.4140625 q 0 -0.59765625 1.3828125 -0.59765625 q 0.30078125 0 0.65625 0.046875 Z "/>
        </symbol>
        <symbol id="g1948001B7BA99CAC85DAC6807E74130A" overflow="visible">
            <path d="M 0 0m 1.2734375 4.0351563 v -4.5351563 h -0.59375 v 6.8945313 h 2.8320313 v -2.359375 h -2.2382813 Z m 0 1.3710938 h 1.6640625 v 0.58203125 h -1.6640625 v -0.58203125 Z m 1.6640625 -0.390625 h -1.6640625 v -0.5703125 h 1.6640625 v 0.5703125 Z m 3.7617188 -5.46875 h -0.69921875 l -0.07421875 0.5234375 h 0.546875 q 0.10546875 0 0.19140625 0.078125 q 0.0859375 0.078125 0.0859375 0.17578125 v 3.7109375 h -2.2851563 v 2.359375 h 2.8867188 v -6.2578125 q 0 -0.58984375 -0.65234375 -0.58984375 Z m -1.6640625 5.859375 h 1.7148438 v 0.58203125 h -1.7148438 v -0.58203125 Z m 1.7148438 -0.390625 h -1.7148438 v -0.5703125 h 1.7148438 v 0.5703125 Z m -2.8046875 -3.6992188 q -0.546875 -1.1015625 -1.96875 -1.4492188 l -0.15625 0.390625 q 0.57421875 0.14453125 1.0253906 0.484375 q 0.45117188 0.33984375 0.6269531 0.7578125 h -1.578125 v 0.44140625 h 1.7539063 v 0.70703125 h -1.5820313 v 0.43359375 h 0.890625 l -0.3046875 0.61328125 l 0.47265625 0.11328125 l 0.35546875 -0.7265625 h 0.91796875 l 0.39453125 0.75 l 0.49609375 -0.12109375 l -0.3984375 -0.62890625 h 1.0351563 v -0.43359375 h -1.7382813 v -0.70703125 h 1.8945313 v -0.44140625 h -1.7109375 q 0.5625 -0.8359375 1.4726563 -1.21875 l -0.27734375 -0.4140625 q -1.0742188 0.4375 -1.6210938 1.4492188 Z "/>
        </symbol>
        <symbol id="gD10BA195060D8332345042DDAEE73744" overflow="visible">
            <path d="M 0 0m 0.3359375 1.9804688 v 0.49609375 h 3.46875 v 1.4023438 h -3.1523438 v 0.484375 h 3.1523438 v 1.2539063 q -1.640625 -0.12890625 -2.8984375 -0.12890625 l -0.0625 0.48828125 q 3.9960938 0.0703125 5.875 0.5234375 l 0.27734375 -0.46484375 q -0.90234375 -0.2109375 -2.5820313 -0.3671875 v -1.3046875 h 2.90625 v -0.484375 h -2.90625 v -1.4023438 h 3.2734375 v -0.49609375 h -3.2734375 v -1.8046875 q 0 -0.28515625 -0.22460938 -0.46484375 q -0.22460938 -0.1796875 -0.5332031 -0.1796875 h -1.1679688 l -0.0625 0.546875 h 1.0195313 q 0.12890625 0 0.24414063 0.091796875 q 0.115234375 0.091796875 0.115234375 0.20898438 v 1.6015625 h -3.46875 Z "/>
        </symbol>
        <symbol id="gAD27658FD1F322B71A0ABAECAE143F03" overflow="visible">
            <path d="M 0 0m 5.0742188 0.9921875 h -0.578125 v 1.28125 q 0 0.2265625 -0.01171875 0.38671875 q -1.796875 -0.90234375 -1.796875 -1.6367188 q 0 -0.3671875 0.40234375 -0.5839844 q 0.40234375 -0.21679688 1.6953125 -0.21679688 q 1.5351563 0 2.4492188 0.14453125 l 0.0390625 -0.56640625 q -0.9296875 -0.109375 -2.1484375 -0.109375 q -1.8789063 0 -2.4492188 0.328125 q -0.5703125 0.328125 -0.5703125 0.9375 q -0.00390625 0.54296875 0.5019531 1.0742188 q 0.5058594 0.53125 1.7597656 1.1484375 q -0.16015625 0.3515625 -0.57421875 0.3515625 q -0.46875 0 -1.0097656 -0.16992188 q -0.5410156 -0.16992188 -1.3417969 -0.8535156 l -0.6484375 -0.546875 l -0.3359375 0.3984375 q 1.4296875 1.109375 2.1328125 2.5625 h -1.8203125 v 0.5078125 h 2.0351563 q 0.1796875 0.46484375 0.27734375 0.9375 l 0.6484375 -0.0546875 q -0.09765625 -0.44921875 -0.265625 -0.8828125 h 2.9023438 v -0.5078125 h -3.109375 q -0.21875 -0.44921875 -0.76171875 -1.1875 l 0.05859375 -0.03125 q 0.15234375 0.09765625 0.6015625 0.18945313 q 0.44921875 0.091796875 0.69140625 0.091796875 q 0.7578125 0 1.0351563 -0.56640625 l 2.3007813 0.88671875 l 0.2578125 -0.52734375 q -0.8125 -0.265625 -2.4140625 -0.86328125 q 0.046875 -0.29296875 0.046875 -0.73828125 v -1.1835938 Z "/>
        </symbol>
        <symbol id="gB83DBB8B959F10E477B321ACAB7FCE2" overflow="visible">
            <path d="M 0 0m 6.53125 -0.40234375 h -0.98828125 l -0.08203125 0.5546875 h 0.80078125 q 0.34375 0 0.34375 0.30078125 v 1.765625 h -1.96875 q -0.12109375 -0.78125 -0.49414063 -1.5136719 q -0.37304688 -0.7324219 -0.8691406 -1.1816406 l -0.390625 0.3203125 q 0.5 0.47265625 0.8652344 1.3613281 q 0.36523438 0.8886719 0.36523438 2.2128906 v 2.9023438 h 3.1171875 v -6.109375 q 0 -0.27734375 -0.20117188 -0.4453125 q -0.20117188 -0.16796875 -0.49804688 -0.16796875 Z m 0.07421875 4.921875 v 1.34375 h -1.8867188 v -1.34375 h 1.8867188 Z m 0 -1.828125 v 1.3710938 h -1.8867188 v -0.5703125 q 0 -0.48828125 -0.02734375 -0.80078125 h 1.9140625 Z m -5.3398438 -1.4765625 v -0.4921875 h -0.5859375 v 5.5195313 h 2.5117188 v -5.0273438 h -1.9257813 Z m 1.3398438 4.578125 h -1.3398438 v -1.765625 h 1.3398438 v 1.765625 Z m -1.3398438 -2.2226563 v -1.875 h 1.3398438 v 1.875 h -1.3398438 Z "/>
        </symbol>
        <symbol id="g329CB1AE9F9C696368D7B5415A5304BC" overflow="visible">
            <path d="M 0 0m 0.99609375 5.5429688 v 0.48828125 h 6.015625 v -0.48828125 h -6.015625 Z m 2.6796875 -5.984375 h -1.1523438 l -0.06640625 0.5546875 h 0.94140625 q 0.13671875 0 0.23828125 0.083984375 q 0.1015625 0.083984375 0.1015625 0.21289063 v 2.953125 h -3.328125 v 0.47265625 h 7.15625 v -0.47265625 h -3.1992188 v -3.1679688 q 0 -0.26953125 -0.20898438 -0.453125 q -0.20898438 -0.18359375 -0.48242188 -0.18359375 Z m -3.1367188 0.546875 l -0.3671875 0.40234375 q 0.51953125 0.35546875 1.1171875 1.0273438 q 0.59765625 0.671875 0.859375 1.1484375 l 0.5546875 -0.26953125 q -0.96875 -1.5117188 -2.1640625 -2.3085938 Z m 6.796875 0.0078125 q -0.4296875 0.33203125 -1.0605469 1.0371094 q -0.6308594 0.7050781 -0.9707031 1.2402344 l 0.5234375 0.28515625 q 0.4921875 -0.6796875 1.0351563 -1.2539063 q 0.54296875 -0.57421875 0.921875 -0.8515625 l -0.44921875 -0.45703125 Z "/>
        </symbol>
        <symbol id="g906D32A83486F50C73E14B80DBD015B2" overflow="visible">
            <path d="M 0 0m 4.5546875 3.34375 q -0.22265625 0.44140625 -0.9296875 0.44140625 q -0.34375 -0.00390625 -0.61328125 -0.28515625 q -0.26953125 -0.28125 -0.265625 -0.62890625 q 0 -0.37890625 0.2109375 -0.609375 q 0.2109375 -0.23046875 0.57421875 -0.23046875 q 0.4609375 0 0.7363281 0.30078125 q 0.27539063 0.30078125 0.28710938 0.7890625 v 0.22265625 Z m 3.0859375 1.5859375 h -2.4648438 v -1.5039063 q 0.2578125 -0.453125 0.2578125 -1.2421875 q -0.00390625 -1.03125 -0.7636719 -1.7324219 q -0.7597656 -0.7011719 -1.8769531 -0.7714844 l -0.16015625 0.48828125 q 0.9375 0.06640625 1.5761719 0.64453125 q 0.6386719 0.578125 0.6386719 1.4335938 q 0 0.14453125 -0.015625 0.26171875 q -0.09765625 -0.453125 -0.45703125 -0.7128906 q -0.359375 -0.25976563 -0.86328125 -0.25976563 q -0.5703125 0 -0.96484375 0.36132813 q -0.39453125 0.36132813 -0.39453125 0.9082031 q 0 0.62890625 0.44335938 1.0488281 q 0.44335938 0.41992188 1.0878906 0.41992188 q 0.484375 0 0.86328125 -0.28515625 v 0.94140625 h -3.9140625 v 0.51171875 h 3.9140625 v 0.93359375 h 0.62890625 v -0.93359375 h 2.4648438 v -0.51171875 Z "/>
        </symbol>
        <symbol id="gDFB12A2EDC95B031ACAC588364C5620E" overflow="visible">
            <path d="M 0 0m 2.7929688 6.375 q 0 -0.4375 -0.0390625 -1.046875 h 2.8398438 v -0.51953125 h -2.8828125 q -0.140625 -1.5039063 -0.6640625 -2.9726563 q -0.5234375 -1.46875 -1.0625 -2.125 l -0.46484375 0.3046875 q 0.56640625 0.8046875 1.0175781 2.1582031 q 0.45117188 1.3535156 0.5566406 2.6347656 h -1.421875 v 0.51953125 h 1.4570313 q 0.0234375 0.50390625 0.0234375 1.046875 h 0.640625 Z m 4.4570313 -2.3125 l -0.0078125 -0.51171875 q -0.19140625 0.0078125 -0.3515625 0.0078125 q -1.3984375 0 -3.0742188 -0.16015625 l -0.0390625 0.515625 q 1.5273438 0.16015625 3.0195313 0.16015625 q 0.26171875 0 0.453125 -0.01171875 Z m 0.23046875 -4.0625 q -0.62109375 -0.10546875 -1.6796875 -0.10546875 q -0.89453125 0 -1.4042969 0.07421875 q -0.5097656 0.07421875 -0.8027344 0.33984375 q -0.29296875 0.265625 -0.29296875 0.6484375 q 0 0.5546875 0.4453125 1.0507813 l 0.4375 -0.24609375 q -0.28515625 -0.3828125 -0.28515625 -0.73828125 q -0.00390625 -0.2421875 0.26367188 -0.41796875 q 0.26757813 -0.17578125 1.4980469 -0.17578125 q 0.9375 0 1.7890625 0.10546875 l 0.03125 -0.53515625 Z "/>
        </symbol>
        <symbol id="g7F961EFC826AE69C379F3EA95D645DDD" overflow="visible">
            <path d="M 0 0m 3.921875 1.046875 l -0.44921875 -0.375 q -0.12890625 0.16015625 -0.2890625 0.37890625 q -0.90234375 -0.90625 -1.7265625 -0.90625 q -0.4921875 0 -0.8027344 0.3671875 q -0.31054688 0.3671875 -0.31054688 0.90625 q 0 0.703125 0.3671875 1.3671875 q 0.3671875 0.6640625 1 1.1367188 q -0.25 0.7578125 -0.4140625 1.6289063 l 0.59375 0.15234375 q 0.1171875 -0.6796875 0.34765625 -1.4453125 q 0.90234375 0.48828125 2.0117188 0.60546875 q 0.0703125 0.734375 0.0703125 1.359375 l 0.640625 0.0078125 q -0.01953125 -0.7890625 -0.07421875 -1.3320313 q 1.1796875 -0.01953125 1.9550781 -0.703125 q 0.7753906 -0.68359375 0.7753906 -1.7773438 q 0 -1.2109375 -0.9140625 -1.9121094 q -0.9140625 -0.7011719 -2.4765625 -0.8027344 l -0.14453125 0.51171875 q 2.9023438 0.28125 2.9023438 2.2460938 q 0 0.8671875 -0.6113281 1.3964844 q -0.6113281 0.5292969 -1.5527344 0.5371094 q -0.26953125 -1.6523438 -1.2382813 -2.8945313 q 0.140625 -0.19921875 0.33984375 -0.453125 Z m -1.5390625 2.7148438 q 0.34375 -0.9140625 0.8671875 -1.7578125 q 0.73046875 1.0351563 0.9375 2.3515625 q -1.0351563 -0.12109375 -1.8046875 -0.59375 Z m 0.48046875 -2.2421875 q -0.58203125 0.890625 -0.96484375 1.8789063 q -0.36328125 -0.3203125 -0.58984375 -0.6699219 q -0.2265625 -0.34960938 -0.30273438 -0.671875 q -0.076171875 -0.32226563 -0.076171875 -0.7050781 q 0 -0.25390625 0.18554688 -0.45507813 q 0.18554688 -0.20117188 0.43945313 -0.20117188 q 0.5546875 0 1.3085938 0.82421875 Z "/>
        </symbol>
        <symbol id="g1B7E8D4B36DF60FF08C18EBF80FF7220" overflow="visible">
            <path d="M 0 0m 1.5920001 5.248 c 0 -0.07999992 0.08799994 -0.119999886 0.25599992 -0.119999886 c 0.32000017 0 0.48000002 -0.032000065 0.48000002 -0.10400009 c 0 -0.024000168 -0.016000032 -0.07999992 -0.03999996 -0.18400002 l -1.0400001 -4.184 c -0.047999978 -0.176 -0.12800002 -0.28 -0.24000001 -0.32 c -0.055999994 -0.016000003 -0.19999999 -0.024000019 -0.448 -0.024000019 c -0.176 0 -0.25599998 -0.016000003 -0.25599998 -0.184 c 0 -0.088 0.048000008 -0.128 0.15200001 -0.128 l 1.04 0.024 l 1.184 -0.024 c 0.12800002 0 0.19200015 0.064 0.19200015 0.18400002 c 0 0.136 -0.08800006 0.12799999 -0.296 0.12799999 c -0.352 0 -0.55200005 0.016000003 -0.60000014 0.056000024 c -0.02399993 0.007999986 -0.031999946 0.03999999 -0.031999946 0.07999998 l 0.51199996 2.1200001 h 0.74399996 c 0.36800003 0 0.6240001 -0.016000032 0.6240001 -0.31999993 c 0 -0.10400009 -0.016000032 -0.23200011 -0.055999994 -0.38400006 c -0.007999897 -0.024000049 -0.016000032 -0.055999994 -0.02399993 -0.08799994 c 0 -0.08800006 0.03999996 -0.12800002 0.12800002 -0.12800002 c 0.03999996 0.008000016 0.095999956 0.06400001 0.15199995 0.18400002 l 0.43200016 1.7200001 c 0.015999794 0.06399989 0.023999691 0.11199999 0.023999691 0.13599992 c -0.023999691 0.07200003 -0.07200003 0.11199999 -0.12799978 0.11199999 c -0.06400013 0 -0.11199999 -0.06400013 -0.14400005 -0.18400002 c -0.07999992 -0.3039999 -0.19199991 -0.49600005 -0.31999993 -0.592 c -0.12800002 -0.095999956 -0.352 -0.14400005 -0.67200017 -0.14400005 h -0.68000007 l 0.49600005 1.9679999 c 0.06400013 0.2720003 0.06400013 0.2800002 0.4000001 0.2800002 h 1.04 c 0.776 0 1.1280003 -0.119999886 1.1280003 -0.83200026 c 0 -0.15999985 -0.007999897 -0.3039999 -0.024000168 -0.4239998 c -0.007999897 -0.08800006 -0.015999794 -0.13600016 -0.015999794 -0.14400005 c 0 -0.08800006 0.03999996 -0.12800002 0.119999886 -0.12800002 c 0.07999992 0 0.12799978 0.07200003 0.14400005 0.22399998 l 0.15999985 1.3680003 c 0.024000168 0.22399998 -0.032000065 0.24799967 -0.24800014 0.24799967 h -3.872 c -0.18400002 0 -0.27199996 -0.007999897 -0.27199996 -0.19199991 Z "/>
        </symbol>
        <symbol id="gA5E22C953F0472D0F35F299B64AE9042" overflow="visible">
            <path d="M 0 0m 1.288 1.596 l -0.644 0.46479988 c -0.08960003 0.07280016 -0.2184 0.033600092 -0.2744 -0.06159985 c -0.055999994 -0.09520006 -0.022400022 -0.22960007 0.078399986 -0.2744 l 0.72800004 -0.3248 l -0.72800004 -0.31920004 c -0.10080001 -0.044799924 -0.13439998 -0.1792 -0.078399986 -0.2744 c 0.055999994 -0.09519994 0.18479997 -0.13439995 0.2744 -0.067199945 l 0.644 0.47039998 l -0.08399999 -0.7896 c -0.01120007 -0.117599994 0.08959997 -0.20719999 0.19599998 -0.20719999 c 0.10640001 0 0.20719993 0.0896 0.19599998 0.20719999 l -0.08399999 0.7896 l 0.64399993 -0.47039998 c 0.09520006 -0.067200005 0.2184 -0.027999997 0.2744 0.067199945 c 0.055999994 0.0952 0.022399902 0.22960007 -0.0783999 0.2744 l -0.72800004 0.31920004 l 0.72800004 0.3248 c 0.1007998 0.044799924 0.13439989 0.17919993 0.0783999 0.2744 c -0.055999994 0.09519994 -0.18479991 0.13440001 -0.2744 0.06159985 l -0.64399993 -0.46479988 l 0.08399999 0.7895999 c 0.011199951 0.11199999 -0.08959997 0.20720005 -0.19599998 0.20720005 c -0.10640001 0 -0.20720005 -0.09520006 -0.19599998 -0.20720005 Z "/>
        </symbol>
        <symbol id="g7FEC3E9B711FD8EF9E6D6A6B57FEA29" overflow="visible">
            <path d="M 0 0m 7.2421875 -0.13671875 q -1.1132813 -0.11328125 -2.390625 -0.11328125 q -0.5546875 0 -1.2050781 0.01953125 q -0.6503906 0.01953125 -1.0703125 0.10546875 q -0.41992188 0.0859375 -0.7480469 0.30859375 q -0.328125 0.22265625 -0.48046875 0.51953125 q -0.15234375 0.296875 -0.15234375 0.68359375 q 0 1.3359375 2.1289063 2.2421875 q -0.10546875 1.234375 -0.125 2.6289063 h 0.6484375 q -0.00390625 -0.16796875 -0.00390625 -0.35546875 q 0 -0.9140625 0.078125 -2.0390625 q 0.75390625 0.27734375 2.8789063 0.8828125 l 0.16015625 -0.5546875 q -0.6171875 -0.1640625 -1.9238281 -0.54296875 q -1.3066406 -0.37890625 -1.9511719 -0.7207031 q -0.64453125 -0.34179688 -0.9609375 -0.72265625 q -0.31640625 -0.38085938 -0.31640625 -0.8027344 q 0 -0.2109375 0.08203125 -0.3828125 q 0.08203125 -0.171875 0.26171875 -0.31640625 q 0.1796875 -0.14453125 0.49023438 -0.25195313 q 0.31054688 -0.107421875 0.8378906 -0.13085938 q 0.52734375 -0.0234375 1.1484375 -0.01953125 q 1.4414063 0 2.6132813 0.140625 v -0.578125 Z "/>
        </symbol>
        <symbol id="g799C0F7683815FE42AC874285458142B" overflow="visible">
            <path d="M 0 0m 6.0898438 5.7109375 l -0.13671875 -0.55078125 q -1.5351563 0.30078125 -4.4257813 0.359375 l 0.02734375 0.52734375 q 0.859375 0 1.8515625 -0.060546875 q 0.9921875 -0.060546875 2.6835938 -0.27539063 Z m -3.890625 -6.0234375 l -0.109375 0.51171875 q 1.7304688 0.12109375 2.6757813 0.53125 q 0.9453125 0.41015625 1.2539063 0.8808594 q 0.30859375 0.47070313 0.30859375 1.1152344 q 0 0.55859375 -0.4453125 0.8769531 q -0.4453125 0.31835938 -1.1367188 0.31835938 q -0.37109375 0 -0.80859375 -0.041015625 q -0.4375 -0.041015625 -0.73046875 -0.087890625 q -0.29296875 -0.046875 -2.1328125 -0.3828125 l -0.10546875 0.55859375 l 1.5273438 0.25 q 0.72265625 0.12109375 1.2714844 0.171875 q 0.5488281 0.05078125 0.9863281 0.05078125 q 1 0 1.5957031 -0.45507813 q 0.5957031 -0.45507813 0.5957031 -1.2910156 q 0 -1.40625 -1.2558594 -2.171875 q -1.2558594 -0.765625 -3.4902344 -0.8359375 Z "/>
        </symbol>
        <symbol id="gA7EDE648AF8F0660750CEDD53D85224" overflow="visible">
            <path d="M 0 0m 0.3359375 2.3515625 v 0.42578125 h 3.2734375 v 0.44140625 h -2.8164063 v 0.40625 h 2.8164063 v 0.44921875 h -2.546875 v 0.41015625 h 2.546875 v 0.45703125 h -3.3476563 v 0.4296875 h 3.3476563 v 0.45703125 h -2.5078125 v 0.43359375 h 2.5078125 v 0.3671875 h 0.6015625 v -0.3671875 h 2.7265625 v -0.890625 h 0.765625 v -0.4296875 h -0.765625 v -0.8671875 h -2.7265625 v -0.44921875 h 2.9570313 v -0.40625 h -2.9570313 v -0.44140625 h 3.421875 v -0.42578125 h -7.296875 Z m 3.875 3.4765625 v -0.45703125 h 2.140625 v 0.45703125 h -2.140625 Z m 0 -0.88671875 v -0.45703125 h 2.140625 v 0.45703125 h -2.140625 Z m 1.9609375 -5.1835938 h -4.4335938 v -0.2265625 h -0.578125 v 2.3984375 h 5.6054688 v -2.3984375 h -0.59375 v 0.2265625 Z m 0 1.28125 v 0.48046875 h -4.4335938 v -0.48046875 h 4.4335938 Z m -4.4335938 -0.890625 h 4.4335938 v 0.4921875 h -4.4335938 v -0.4921875 Z "/>
        </symbol>
        <symbol id="gCC742F8A57B9E2494FD4DB735698E808" overflow="visible">
            <path d="M 0 0m 6.4804688 1.921875 l -0.4296875 -0.43359375 q -0.42578125 0.28515625 -1.0507813 0.45507813 q -0.625 0.16992188 -1.2070313 0.16992188 q -1.265625 0 -1.6972656 -0.26367188 q -0.43164063 -0.26367188 -0.43164063 -0.7285156 q 0 -0.40625 0.5 -0.63671875 q 0.5 -0.23046875 1.9648438 -0.23046875 q 1.296875 0 2.296875 0.1640625 l 0.015625 -0.5625 q -0.87109375 -0.14453125 -2.328125 -0.14453125 q -1.6835938 0 -2.3789063 0.36132813 q -0.6953125 0.36132813 -0.6953125 1.0488281 q 0 0.734375 0.6621094 1.1191406 q 0.6621094 0.38476563 1.7714844 0.38476563 q 1.1953125 0 2.0898438 -0.3359375 q -0.390625 0.50390625 -0.72265625 1.1289063 h -4.046875 v 0.50390625 h 3.8046875 q -0.21484375 0.484375 -0.35546875 0.93359375 h -3.2265625 v 0.50390625 h 3.0664063 q -0.125 0.5 -0.19140625 0.9765625 l 0.62109375 0.0546875 q 0.11328125 -0.69921875 0.19921875 -1.03125 h 2.2578125 v -0.50390625 h -2.1171875 q 0.10546875 -0.328125 0.3515625 -0.93359375 h 2.140625 v -0.50390625 h -1.8867188 q 0.32421875 -0.6015625 1.0234375 -1.4960938 Z "/>
        </symbol>
        <symbol id="g53C3BFD00DF1523F5676D3678D6FD585" overflow="visible">
            <path d="M 0 0m 3.125 3.1601563 q -0.42578125 -2.4023438 -2.625 -3.5742188 l -0.30859375 0.40234375 q 0.6875 0.3984375 1.1367188 0.8691406 q 0.44921875 0.47070313 0.69140625 0.9472656 q 0.2421875 0.4765625 0.34960938 0.859375 q 0.107421875 0.3828125 0.17382813 0.7441406 q 0.06640625 0.36132813 0.08984375 1.4589844 h -2.2070313 v 0.49609375 h 3.2070313 v 1.1914063 h 0.63671875 v -1.1914063 h 3.3710938 v -0.49609375 h -4.3671875 q -0.0078125 -0.75390625 -0.0703125 -1.234375 h 3.5234375 v -1.0273438 q 0 -0.66796875 -0.046875 -1.171875 q -0.046875 -0.50390625 -0.14648438 -0.8515625 q -0.099609375 -0.34765625 -0.27734375 -0.546875 q -0.17773438 -0.19921875 -0.41992188 -0.28710938 q -0.2421875 -0.087890625 -0.41015625 -0.095703125 q -0.16796875 -0.0078125 -0.81640625 -0.0078125 h -0.51171875 l -0.0859375 0.546875 h 1.0195313 q 0.70703125 0 0.88671875 0.57421875 q 0.1796875 0.57421875 0.1796875 1.7109375 v 0.68359375 h -2.9726563 Z "/>
        </symbol>
        <symbol id="gEAAD90F0A5F5713E7AC1D44C8DCF9B8" overflow="visible">
            <path d="M 0 0m 1.3242188 -0.46875 h -0.98828125 l -0.0546875 0.5390625 h 0.734375 q 0.29296875 0 0.29296875 0.2578125 v 2.2148438 q -0.30859375 -0.109375 -1.046875 -0.3515625 l -0.12890625 0.5390625 q 0.4140625 0.09375 1.1757813 0.3515625 v 1.6132813 h -0.96484375 v 0.47265625 h 0.96484375 v 1.46875 h 0.609375 v -1.46875 h 0.78515625 v -0.47265625 h -0.78515625 v -1.3945313 q 0.515625 0.19140625 0.7421875 0.29296875 l 0.125 -0.44140625 q -0.23046875 -0.13671875 -0.8671875 -0.3828125 v -2.6757813 q 0 -0.25 -0.19140625 -0.40625 q -0.19140625 -0.15625 -0.40234375 -0.15625 Z m 1.5585938 6.125 l -0.08984375 0.46875 q 0.9375 0.02734375 2.34375 0.17773438 q 1.40625 0.15039063 2.078125 0.31054688 l 0.23046875 -0.48046875 q -0.8046875 -0.16796875 -2.2675781 -0.31445313 q -1.4628906 -0.14648438 -2.2949219 -0.16210938 Z m 3.7617188 -2.1289063 l -0.5234375 0.15625 q 0.4921875 0.921875 0.78515625 1.859375 l 0.62890625 -0.171875 q -0.5390625 -1.3085938 -0.890625 -1.84375 Z m -1.625 0.45703125 l -0.43359375 1.3710938 l 0.55859375 0.15625 l 0.4453125 -1.3789063 l -0.5703125 -0.1484375 Z m -1.4921875 -0.390625 l -0.48828125 1.4609375 l 0.5546875 0.171875 l 0.47265625 -1.453125 l -0.5390625 -0.1796875 Z m -1.0703125 -3.7773438 l -0.26953125 0.40625 q 0.6171875 0.32421875 1.3300781 0.95703125 q 0.7128906 0.6328125 1.0253906 1.125 h -1.953125 v 0.48046875 h 2.1054688 v 0.7265625 h 0.625 v -0.7265625 h 2.2539063 v -0.48046875 h -2.1484375 q 0.3046875 -0.40234375 0.9746094 -1.0039063 q 0.6699219 -0.6015625 1.4355469 -1.0351563 l -0.390625 -0.44140625 q -1.1523438 0.6484375 -2.125 1.8164063 v -2.1445313 h -0.625 v 2.109375 q -1.0625 -1.171875 -2.2382813 -1.7890625 Z "/>
        </symbol>
        <symbol id="g6E325F2C33FE31FDA7054ECC2C76B818" overflow="visible">
            <path d="M 0 0m 7.4179688 2.734375 q -0.44140625 -1.5625 -1.3007813 -2.296875 q -0.859375 -0.734375 -2.2109375 -0.734375 q -0.52734375 0 -0.9375 0.10546875 q -0.41015625 0.10546875 -0.703125 0.31445313 q -0.29296875 0.20898438 -0.46875 0.5234375 q -0.17578125 0.31445313 -0.22460938 0.6816406 q -0.048828125 0.3671875 -0.048828125 1.2148438 q 0 1.4414063 0.171875 3.5390625 h 0.640625 q -0.20703125 -2.0117188 -0.20703125 -3.5703125 q 0 -0.54296875 0.025390625 -0.9160156 q 0.025390625 -0.37304688 0.2265625 -0.6894531 q 0.20117188 -0.31640625 0.5996094 -0.48046875 q 0.3984375 -0.1640625 0.98828125 -0.1640625 q 1.0585938 0 1.7617188 0.5957031 q 0.703125 0.5957031 1.140625 2.0800781 l 0.546875 -0.203125 Z "/>
        </symbol>
        <symbol id="g172D42DEB10755C13727EDEBD1F72260" overflow="visible">
            <path d="M 0 0m 7.234375 0.59375 l -0.3359375 -0.51953125 q -0.921875 0.69140625 -2.3515625 1.2226563 v -0.578125 q 0 -1.0078125 -1.859375 -1.0078125 q -0.73828125 0 -1.2734375 0.31835938 q -0.53515625 0.31835938 -0.53515625 0.8730469 q 0 0.57421875 0.5078125 0.9121094 q 0.5078125 0.33789063 1.2226563 0.33789063 q 0.75 0 1.3125 -0.14453125 v 1.1523438 h -2.9609375 v 0.51171875 h 2.9609375 v 1.1914063 h -3.1679688 v 0.51171875 h 3.1679688 v 0.83984375 h 0.60546875 v -0.83984375 h 2.8984375 v -0.51171875 h -2.8984375 v -1.1914063 h 2.5625 v -0.51171875 h -2.5625 v -1.2890625 q 1.796875 -0.6796875 2.7070313 -1.2773438 Z m -3.296875 0.328125 v 0.55078125 q -0.5 0.18359375 -1.3242188 0.18359375 q -0.4296875 0 -0.79296875 -0.1953125 q -0.36328125 -0.1953125 -0.36328125 -0.515625 q 0 -0.33984375 0.36523438 -0.5175781 q 0.36523438 -0.17773438 0.9160156 -0.17773438 q 0.52734375 0 0.7636719 0.0859375 q 0.23632813 0.0859375 0.3359375 0.19921875 q 0.099609375 0.11328125 0.099609375 0.38671875 Z "/>
        </symbol>
        <symbol id="g5E2367B1E7252A4E568F75D12A5A1541" overflow="visible">
            <path d="M 0 0m 0.671875 0.6953125 q 0 0.42578125 0.30859375 0.7265625 q 0.30859375 0.30078125 0.74609375 0.30078125 q 0.4375 0 0.74609375 -0.30078125 q 0.30859375 -0.30078125 0.30859375 -0.7265625 q 0 -0.42578125 -0.30859375 -0.7265625 q -0.30859375 -0.30078125 -0.74609375 -0.30078125 q -0.4375 0 -0.74609375 0.30078125 q -0.30859375 0.30078125 -0.30859375 0.7265625 Z m 0.45703125 0 q 0 -0.24609375 0.17578125 -0.421875 q 0.17578125 -0.17578125 0.421875 -0.17578125 q 0.24609375 0 0.421875 0.17578125 q 0.17578125 0.17578125 0.17578125 0.421875 q 0 0.24609375 -0.17578125 0.421875 q -0.17578125 0.17578125 -0.421875 0.17578125 q -0.24609375 0 -0.421875 -0.17578125 q -0.17578125 -0.17578125 -0.17578125 -0.421875 Z "/>
        </symbol>
    </defs>
</svg>
