<svg class="typst-doc" viewBox="0 0 283.46456692913387 178.56633070866144" width="283.46456692913387pt" height="178.56633070866144pt" xmlns="http://www.w3.org/2000/svg" xmlns:xlink="http://www.w3.org/1999/xlink" xmlns:h5="http://www.w3.org/1999/xhtml">
    <path class="typst-shape" fill="#ffffff" fill-rule="nonzero" d="M 0 0v 178.56633 h 283.46457 v -178.56633 Z "/>
    <g>
        <g class="typst-group" transform="matrix(1 0 0 1 82.95628346451691 22.677165354330707)">
            <g>
                <g class="typst-group">
                    <g>
                        <path class="typst-shape" fill="none" stroke="#000000" stroke-width="0.576" stroke-linecap="round" stroke-linejoin="miter" stroke-miterlimit="4" transform="matrix(1 0 0 1 20.117977469619586 20.255999999999993)" d="M 0 0h 77.40941 "/>
                        <path class="typst-shape" fill="none" stroke="#000000" stroke-width="0.576" stroke-linecap="round" stroke-linejoin="miter" stroke-miterlimit="4" transform="matrix(1 0 0 1 95.26543309233355 20.256000000000007)" d="M 0 0m 2.2619534 0 c -1.1613145 0.53414494 -2.0005531 1.5873247 -2.2619534 2.8385768 "/>
                        <path class="typst-shape" fill="none" stroke="#000000" stroke-width="0.576" stroke-linecap="round" stroke-linejoin="miter" stroke-miterlimit="4" transform="matrix(1 0 0 1 95.26543309233355 17.41742310923836)" d="M 0 0m 2.2619534 2.8385768 c -1.1613145 -0.5341449 -2.0005531 -1.5873246 -2.2619534 -2.8385768 "/>
                        <path class="typst-shape" fill="none" transform="matrix(1 0 0 1 53.08668195200663 0)" d="M 0 0h 11.76 v 15.456 h -11.76 v -15.456 Z "/>
                        <g class="typst-group">
                            <g>
                                <g class="typst-group" transform="matrix(1 0 0 1 53.08668190476253 -0.00000009448819231850601)">
                                    <g>
                                        <g class="typst-group">
                                            <g>
                                                <g class="typst-group">
                                                    <g>
                                                        <g class="typst-text" transform="matrix(1 0 0 -1 2.4 10.596)">
                                                            <use xlink:href="#g4FD8E3D4C7B61E2A1C9A977D75634F19" x="0" y="0" fill="#000000" fill-rule="nonzero"/>
                                                        </g>
                                                    </g>
                                                </g>
                                            </g>
                                        </g>
                                    </g>
                                </g>
                            </g>
                        </g>
                        <path class="typst-shape" fill="none" stroke="#000000" stroke-width="0.576" stroke-linecap="round" stroke-linejoin="miter" stroke-miterlimit="4" transform="matrix(1 0 0 1 23.003999905561805 112.45200000000001)" d="M 0 0h 71.712 "/>
                        <path class="typst-shape" fill="none" stroke="#000000" stroke-width="0.576" stroke-linecap="round" stroke-linejoin="miter" stroke-miterlimit="4" transform="matrix(1 0 0 1 92.45404682461701 112.45200000000001)" d="M 0 0m 2.2619534 0 c -1.1613145 0.53414494 -2.0005531 1.5873247 -2.2619534 2.8385768 "/>
                        <path class="typst-shape" fill="none" stroke="#000000" stroke-width="0.576" stroke-linecap="round" stroke-linejoin="miter" stroke-miterlimit="4" transform="matrix(1 0 0 1 92.45404682461701 109.61342310923837)" d="M 0 0m 2.2619534 2.8385768 c -1.1613145 -0.5341449 -2.0005531 -1.5873246 -2.2619534 -2.8385768 "/>
                        <path class="typst-shape" fill="none" transform="matrix(1 0 0 1 47.49000000005 117.25200000000001)" d="M 0 0h 23.028 v 15.96 h -23.028 v -15.96 Z "/>
                        <g class="typst-group">
                            <g>
                                <g class="typst-group" transform="matrix(1 0 0 1 47.4899999528059 117.25199990551182)">
                                    <g>
                                        <g class="typst-group">
                                            <g>
                                                <g class="typst-group">
                                                    <g>
                                                        <g class="typst-text" transform="matrix(1 0 0 -1 2.4 10.596)">
                                                            <use xlink:href="#gCC92C4D80A910587E0373DB56592D522" x="0" y="0" fill="#000000" fill-rule="nonzero"/>
                                                        </g>
                                                        <g class="typst-text" transform="matrix(1 0 0 -1 8.796000000000001 13.559999999999999)">
                                                            <use xlink:href="#g26E1033ACFC5F24206074C0F59D2D93B" x="0" y="0" fill="#000000" fill-rule="nonzero"/>
                                                        </g>
                                                        <g class="typst-text" transform="matrix(1 0 0 -1 13.668 10.596)">
                                                            <use xlink:href="#g4FD8E3D4C7B61E2A1C9A977D75634F19" x="0" y="0" fill="#000000" fill-rule="nonzero"/>
                                                        </g>
                                                    </g>
                                                </g>
                                            </g>
                                        </g>
                                    </g>
                                </g>
                            </g>
                        </g>
                        <path class="typst-shape" fill="none" stroke="#000000" stroke-width="0.576" stroke-linecap="round" stroke-linejoin="miter" stroke-miterlimit="4" stroke-dashoffset="0" stroke-dasharray="3 3" transform="matrix(1 0 0 1 59.00400000005 29.47560000000001)" d="M 0 0v 73.4688 "/>
                        <path class="typst-shape" fill="none" stroke="#000000" stroke-width="0.576" stroke-linecap="round" stroke-linejoin="miter" stroke-miterlimit="4" transform="matrix(1 0 0 1 56.16542320377654 100.68244673007884)" d="M 0 0m 2.8385768 2.2619534 c -0.5341449 -1.1613145 -1.5873246 -2.0005531 -2.8385768 -2.2619534 "/>
                        <path class="typst-shape" fill="none" stroke="#000000" stroke-width="0.576" stroke-linecap="round" stroke-linejoin="miter" stroke-miterlimit="4" transform="matrix(1 0 0 1 59.00400009453819 100.68244673007884)" d="M 0 0m 0 2.2619534 c 0.53414494 -1.1613145 1.5873247 -2.0005531 2.8385768 -2.2619534 "/>
                        <path class="typst-shape" fill="none" transform="matrix(1 0 0 1 51.94200000005001 59.85600000000001)" d="M 0 0h 14.124 v 12.996 h -14.124 v -12.996 Z "/>
                        <g class="typst-group">
                            <g>
                                <g class="typst-group" transform="matrix(1 0 0 1 51.94199990556181 59.85599985826772)">
                                    <g>
                                        <g class="typst-group">
                                            <g>
                                                <g class="typst-group">
                                                    <g>
                                                        <path class="typst-shape" fill="#ffffff" fill-rule="nonzero" d="M 0 0m 0 2.4 c 0 -1.3254834 1.0745167 -2.4 2.4 -2.4 h 9.323999 c 1.3254833 0 2.3999996 1.0745167 2.3999996 2.4 v 8.195999 c 0 1.3254833 -1.0745163 2.4000006 -2.3999996 2.4000006 h -9.323999 c -1.3254834 0 -2.4 -1.0745173 -2.4 -2.4000006 Z "/>
                                                        <g class="typst-text" transform="matrix(1 0 0 -1 2.4 10.596)">
                                                            <use xlink:href="#gCC92C4D80A910587E0373DB56592D522" x="0" y="0" fill="#000000" fill-rule="nonzero"/>
                                                        </g>
                                                    </g>
                                                </g>
                                            </g>
                                        </g>
                                    </g>
                                </g>
                            </g>
                        </g>
                        <path class="typst-shape" fill="none" transform="matrix(1 0 0 1 4.662000000000003 16.158000000000005)" d="M 0 0h 7.68 v 8.196 h -7.68 v -8.196 Z "/>
                        <g class="typst-group">
                            <g>
                                <g class="typst-group" transform="matrix(1 0 0 1 4.661999905561813 16.15799995275591)">
                                    <g>
                                        <g class="typst-group">
                                            <g>
                                                <g class="typst-text" transform="matrix(1 0 0 -1 0.000000000050000276884722236 8.195999999999998)">
                                                    <use xlink:href="#gD7DA3CEF0E815ACD907D98843385DF86" x="0" y="0" fill="#000000" fill-rule="nonzero"/>
                                                </g>
                                            </g>
                                        </g>
                                    </g>
                                </g>
                            </g>
                        </g>
                        <path class="typst-shape" fill="none" transform="matrix(1 0 0 1 105.66600000000001 16.158000000000005)" d="M 0 0h 7.224 v 8.196 h -7.224 v -8.196 Z "/>
                        <g class="typst-group">
                            <g>
                                <g class="typst-group" transform="matrix(1 0 0 1 105.66599995280589 16.15799995275591)">
                                    <g>
                                        <g class="typst-group">
                                            <g>
                                                <g class="typst-text" transform="matrix(1 0 0 -1 0.00000000004999938171277167 8.195999999999998)">
                                                    <use xlink:href="#g4A62663E3E7026286D1ECA512F2E11DB" x="0" y="0" fill="#000000" fill-rule="nonzero"/>
                                                </g>
                                            </g>
                                        </g>
                                    </g>
                                </g>
                            </g>
                        </g>
                        <path class="typst-shape" fill="none" transform="matrix(1 0 0 1 0 108.354)" d="M 0 0h 17.004 v 8.196 h -17.004 v -8.196 Z "/>
                        <g class="typst-group">
                            <g>
                                <g class="typst-group" transform="matrix(1 0 0 1 -0.0000000944381862230036 108.35399995275593)">
                                    <g>
                                        <g class="typst-group">
                                            <g>
                                                <g class="typst-text" transform="matrix(1 0 0 -1 0.00000000005000072447069752 8.195999999999998)">
                                                    <use xlink:href="#gCC92C4D80A910587E0373DB56592D522" x="0" y="0" fill="#000000" fill-rule="nonzero"/>
                                                </g>
                                                <g class="typst-text" transform="matrix(1 0 0 -1 9.324000000050003 8.195999999999998)">
                                                    <use xlink:href="#gD7DA3CEF0E815ACD907D98843385DF86" x="0" y="0" fill="#000000" fill-rule="nonzero"/>
                                                </g>
                                            </g>
                                        </g>
                                    </g>
                                </g>
                            </g>
                        </g>
                        <path class="typst-shape" fill="none" transform="matrix(1 0 0 1 101.00399999999999 108.354)" d="M 0 0h 16.548 v 8.196 h -16.548 v -8.196 Z "/>
                        <g class="typst-group">
                            <g>
                                <g class="typst-group" transform="matrix(1 0 0 1 101.00399995280588 108.35399995275593)">
                                    <g>
                                        <g class="typst-group">
                                            <g>
                                                <g class="typst-text" transform="matrix(1 0 0 -1 0.00000000005000072447069752 8.195999999999998)">
                                                    <use xlink:href="#gCC92C4D80A910587E0373DB56592D522" x="0" y="0" fill="#000000" fill-rule="nonzero"/>
                                                </g>
                                                <g class="typst-text" transform="matrix(1 0 0 -1 9.324000000050003 8.195999999999998)">
                                                    <use xlink:href="#g4A62663E3E7026286D1ECA512F2E11DB" x="0" y="0" fill="#000000" fill-rule="nonzero"/>
                                                </g>
                                            </g>
                                        </g>
                                    </g>
                                </g>
                            </g>
                        </g>
                    </g>
                </g>
            </g>
        </g>
    </g>
    <defs id="glyph">
        <symbol id="g4FD8E3D4C7B61E2A1C9A977D75634F19" overflow="visible">
            <path d="M 0 0m 6.624 7.596 c 0 0.5279994 -0.5159998 0.86399984 -1.0799999 0.86399984 c -0.74399996 0 -1.2600002 -0.48000002 -1.5360003 -1.428 c -0.059999943 -0.21600008 -0.19199991 -0.82800007 -0.38399982 -1.836 h -0.78 c -0.26400018 0 -0.39600015 -0.012000084 -0.39600015 -0.26399994 c 0 -0.13199997 0.120000124 -0.19199991 0.37199998 -0.19199991 h 0.72 l -0.8759999 -4.644 c -0.13199997 -0.684 -0.2520001 -1.188 -0.36000013 -1.5239999 c -0.14399981 -0.444 -0.34799993 -0.67199993 -0.61199987 -0.67199993 c -0.18000007 0 -0.324 0.04799986 -0.45599997 0.13199985 c 0.38399994 0.060000062 0.576 0.288 0.576 0.67200005 c 0 0.31199998 -0.15600002 0.468 -0.48000002 0.468 c -0.408 0 -0.69600004 -0.35999995 -0.69600004 -0.76799995 c 0 -0.5280001 0.49200004 -0.8640001 1.056 -0.8640001 c 0.29999995 0 0.5760001 0.120000124 0.804 0.37199998 c 0.38400006 0.39600003 0.684 0.96000004 0.9000001 1.7160001 c 0.13199997 0.468 0.25199986 0.924 0.33599997 1.38 l 0.69599986 3.7320004 h 0.9840002 c 0.27600002 0 0.3959999 0.011999607 0.3959999 0.28799963 c 0 0.10800028 -0.119999886 0.16800022 -0.36000013 0.16800022 h -0.9239998 c 0.07200003 0.4920001 0.408 2.304 0.5159998 2.532 c 0.119999886 0.25199986 0.2880001 0.37200022 0.5040002 0.37200022 c 0.17999983 0 0.33599997 -0.048000336 0.46799994 -0.13200045 c -0.37200022 -0.083999634 -0.5640001 -0.2999997 -0.5640001 -0.67199993 c 0 -0.3119998 0.15600014 -0.46799994 0.48000002 -0.46799994 c 0.408 0 0.6960001 0.36000013 0.6960001 0.7680001 Z "/>
        </symbol>
        <symbol id="gCC92C4D80A910587E0373DB56592D522" overflow="visible">
            <path d="M 0 0m 2.388 7.872 c 0 -0.12000036 0.13199997 -0.1800003 0.38400006 -0.1800003 c 0.48000002 0 0.72 -0.04799986 0.72 -0.15599966 c 0 -0.03600025 -0.024000168 -0.12000036 -0.06000018 -0.27600002 l -1.56 -6.276 c -0.07199991 -0.264 -0.19199991 -0.42000002 -0.36 -0.48000002 c -0.08399999 -0.023999989 -0.29999995 -0.036000013 -0.67199993 -0.036000013 c -0.26400006 0 -0.38400003 -0.023999989 -0.38400003 -0.276 c 0 -0.132 0.072 -0.192 0.22800002 -0.192 l 1.56 0.036 l 1.776 -0.036 c 0.19199991 0 0.2880001 0.096 0.2880001 0.276 c 0 0.20400003 -0.13199997 0.192 -0.444 0.192 c -0.5280001 0 -0.82800007 0.024000019 -0.9000001 0.08399999 c -0.036000013 0.012000024 -0.04799986 0.060000002 -0.04799986 0.120000005 l 0.7679999 3.18 h 1.1160002 c 0.55200005 0 0.9359999 -0.02399993 0.9359999 -0.48000002 c 0 -0.1559999 -0.024000168 -0.34800005 -0.08400011 -0.576 c -0.012000084 -0.036000013 -0.023999691 -0.08399987 -0.035999775 -0.13199997 c 0 -0.13199997 0.059999943 -0.19199991 0.19199991 -0.19199991 c 0.059999943 0.0119998455 0.14400005 0.095999956 0.22800016 0.27599978 l 0.64799976 2.5800002 c 0.024000168 0.096000195 0.03600025 0.16799974 0.03600025 0.204 c -0.03600025 0.1079998 -0.10800028 0.16800022 -0.19200039 0.16800022 c -0.09599972 0 -0.16799974 -0.096000195 -0.2159996 -0.27600002 c -0.12000036 -0.45600033 -0.2880001 -0.74400043 -0.48000002 -0.888 c -0.19200039 -0.14400005 -0.52800035 -0.21600008 -1.0080004 -0.21600008 h -1.0199997 l 0.7439997 2.9519997 c 0.096000195 0.40800047 0.096000195 0.42000008 0.6000004 0.42000008 h 1.56 c 1.164 0 1.6919994 -0.17999983 1.6919994 -1.2479997 c 0 -0.24000025 -0.01199913 -0.45600033 -0.035999298 -0.63600016 c -0.012000084 -0.13199997 -0.024000168 -0.204 -0.024000168 -0.21600008 c 0 -0.13199997 0.059999466 -0.19199991 0.1800003 -0.19199991 c 0.119999886 0 0.19199944 0.1079998 0.2159996 0.33599997 l 0.23999977 2.052 c 0.03600025 0.3359995 -0.047999382 0.37199974 -0.37199974 0.37199974 h -5.808 c -0.27600002 0 -0.408 -0.012000084 -0.408 -0.28799963 Z "/>
        </symbol>
        <symbol id="g26E1033ACFC5F24206074C0F59D2D93B" overflow="visible">
            <path d="M 0 0m 1.9319999 2.3939998 l -0.96599996 0.69720006 c -0.13440001 0.1092 -0.3276 0.05040002 -0.4116 -0.092400074 c -0.08399999 -0.14279985 -0.033599973 -0.34439993 0.117600024 -0.41159987 l 1.092 -0.48720002 l -1.092 -0.47879994 c -0.1512 -0.067200065 -0.20160002 -0.26880002 -0.117600024 -0.4116 c 0.08399999 -0.14279997 0.27719998 -0.20159996 0.4116 -0.10080004 l 0.96599996 0.7056 l -0.12599993 -1.1844 c -0.016800046 -0.1764 0.13439989 -0.31080002 0.2939999 -0.31080002 c 0.15960002 0 0.31080008 0.13440001 0.2939999 0.31080002 l -0.12599993 1.1844 l 0.9660001 -0.7056 c 0.14279985 -0.10079992 0.3276 -0.041999936 0.41159987 0.10080004 c 0.08400011 0.14279997 0.033600092 0.34439993 -0.117599964 0.4116 l -1.092 0.47879994 l 1.092 0.48720002 c 0.15120006 0.067199945 0.20160007 0.26880002 0.117599964 0.41159987 c -0.08399987 0.1428001 -0.27719998 0.20160007 -0.41159987 0.092400074 l -0.9660001 -0.69720006 l 0.12599993 1.1844001 c 0.016800165 0.16799998 -0.13439989 0.31080008 -0.2939999 0.31080008 c -0.15960002 0 -0.31079996 -0.1428001 -0.2939999 -0.31080008 Z "/>
        </symbol>
        <symbol id="gD7DA3CEF0E815ACD907D98843385DF86" overflow="visible">
            <path d="M 0 0m 3.72 5.304 c -0.82800007 0 -1.572 -0.35999966 -2.2319999 -1.0679998 c -0.66 -0.70799994 -0.99600005 -1.4880002 -0.99600005 -2.328 c 0 -1.176 0.79200006 -2.04 1.968 -2.04 c 0.82800007 0 1.644 0.324 2.46 0.96000004 c 0.17999983 -0.63600004 0.55200005 -0.96000004 1.1040001 -0.96000004 c 0.43199968 0 1.0439997 0.456 1.0439997 0.888 c 0 0.10800004 -0.059999943 0.15600002 -0.19199991 0.15600002 c -0.083999634 0 -0.15599966 -0.047999978 -0.19199991 -0.144 c -0.096000195 -0.25199997 -0.34800005 -0.552 -0.6240001 -0.552 c -0.204 0 -0.3119998 0.384 -0.3119998 1.164 c 0 0.16799998 0.035999775 0.30000007 0.1079998 0.38400006 c 0.32399988 0.39600003 0.612 0.8519999 0.84000015 1.3560001 c 0.3000002 0.648 0.48000002 1.128 0.5279999 1.4399998 v 0.04799986 c -0.035999775 0.08400011 -0.1079998 0.12000036 -0.19199991 0.12000036 c -0.059999943 -0.012000084 -0.13199997 -0.10800028 -0.21600008 -0.27600002 c -0.25199986 -0.8640001 -0.5999999 -1.608 -1.0679998 -2.22 v 0.5999999 c 0 1.392 -0.6960001 2.472 -2.028 2.472 Z m 1.1159999 -2.7719998 c 0 -0.70800006 0.012000084 -1.1400001 0.024000168 -1.296 c -0.7800002 -0.6840001 -1.572 -1.0200001 -2.3760002 -1.0200001 c -0.6839999 0 -1.02 0.41999996 -1.02 1.248 c 0 0.6960001 0.39600003 1.9920001 0.67199993 2.424 c 0.4560001 0.7080002 0.9840002 1.0679998 1.572 1.0679998 c 0.37199998 0 0.6240003 -0.14399958 0.78 -0.43199968 c 0.08400011 -0.14400005 0.14400005 -0.2880001 0.204 -0.42000008 c 0.096000195 -0.27600002 0.14400005 -1.0080001 0.14400005 -1.572 Z "/>
        </symbol>
        <symbol id="g4A62663E3E7026286D1ECA512F2E11DB" overflow="visible">
            <path d="M 0 0m 5.124 8.472 c -1.5480001 0 -2.5800002 -1.836 -2.94 -3.288 l -1.824 -7.3199997 c 0 -0.13200021 0.060000002 -0.19200015 0.16799998 -0.19200015 h 0.060000002 c 0.08399999 0 0.144 0.036000013 0.15600002 0.120000124 l 0.76799995 3.096 c 0.26400006 -0.696 0.7800001 -1.044 1.548 -1.044 c 0.7440002 0 1.428 0.228 2.04 0.69600004 c 0.85200024 0.636 1.2839999 1.464 1.2839999 2.46 c 0 0.80400014 -0.27599955 1.4039998 -0.8279996 1.8000002 c 0.684 0.42000008 1.1159997 0.96000004 1.2719998 1.6079998 c 0.035999775 0.15600014 0.059999943 0.31200027 0.059999943 0.44400024 c 0 0.9959998 -0.8039999 1.6199999 -1.7639999 1.6199999 Z m -1.4520001 -3.684 c 0.06000018 0.035999775 0.27600002 0.04799986 0.6240001 0.04799986 c 0.08400011 0 0.15600014 -0.012000084 0.24000025 -0.023999691 c -0.12000036 -0.024000168 -0.22800016 -0.03600025 -0.33600044 -0.03600025 h -0.21599984 c -0.13199997 0 -0.24000001 0 -0.31200004 0.012000084 Z m -1.8959999 -3.132 c 0 0.19200003 0.024000049 0.38399994 0.07200003 0.5760001 l 0.70799994 2.8799999 c 0.32400012 1.296 1.188 2.9880004 2.556 2.9880004 c 0.684 0 1.02 -0.34800053 1.02 -1.0320005 c 0 -0.16799974 -0.023999691 -0.35999966 -0.08400011 -0.5879998 c -0.16799974 -0.67199993 -0.48000002 -1.152 -0.94799995 -1.428 c -0.26399994 0.096000195 -0.5279999 0.14400005 -0.7919998 0.14400005 c -0.5280001 0 -1.0680001 -0.012000084 -1.0680001 -0.44400024 c 0 -0.083999634 0.036000013 -0.15599966 0.095999956 -0.204 c 0.10800004 -0.083999634 0.38400006 -0.13199997 0.85200024 -0.13199997 c 0.2999997 0 0.5999999 0.048000336 0.8759999 0.14400005 c 0.32399988 -0.26399994 0.4920001 -0.67199993 0.4920001 -1.224 c 0 -0.29999995 -0.048000336 -0.648 -0.14400005 -1.02 c -0.27600002 -1.0799999 -1.092 -2.112 -2.3400002 -2.112 c -0.816 0 -1.296 0.612 -1.296 1.452 Z "/>
        </symbol>
    </defs>
</svg>
